<svg width="21" height="20" viewBox="0 0 21 20" fill="none" xmlns="http://www.w3.org/2000/svg">
<g id="&#240;&#159;&#166;&#134; icon &#34;instagram icon&#34;">
<path id="Vector" d="M10.5 0C7.78154 0 7.44274 0.0131266 6.37886 0.0581323C5.3106 0.110639 4.58801 0.276285 3.95043 0.523816C3.29285 0.781348 2.73278 1.12327 2.17958 1.67959C1.62264 2.23278 1.2776 2.79285 1.02382 3.45043C0.776285 4.08801 0.610639 4.8106 0.558132 5.87886C0.510001 6.94337 0.5 7.28154 0.5 10C0.5 12.7185 0.513127 13.0573 0.558132 14.1211C0.610639 15.1863 0.776285 15.912 1.02382 16.5496C1.28135 17.2072 1.62327 17.7672 2.17958 18.3204C2.73278 18.8774 3.29285 19.2224 3.95043 19.4762C4.58801 19.7206 5.31373 19.8894 6.37886 19.9419C7.44337 19.99 7.78154 20 10.5 20C13.2185 20 13.5573 19.9869 14.6211 19.9419C15.6863 19.8894 16.412 19.72 17.0496 19.4762C17.7072 19.2187 18.2672 18.8767 18.8204 18.3204C19.3774 17.7672 19.7224 17.2103 19.9762 16.5496C20.2206 15.912 20.3894 15.1863 20.4419 14.1211C20.49 13.0566 20.5 12.7185 20.5 10C20.5 7.28154 20.4869 6.94274 20.4419 5.87886C20.3894 4.81373 20.22 4.08426 19.9762 3.45043C19.7187 2.79285 19.3767 2.23278 18.8204 1.67959C18.2672 1.12264 17.7103 0.777597 17.0496 0.523816C16.412 0.276285 15.6863 0.110639 14.6211 0.0581323C13.5566 0.0100013 13.2185 0 10.5 0ZM10.5 1.80023C13.1697 1.80023 13.4885 1.81335 14.5436 1.85836C15.5169 1.90399 16.0469 2.06651 16.3989 2.20403C16.8683 2.38592 17.1965 2.60095 17.5515 2.95224C17.8997 3.30041 18.1147 3.63233 18.2966 4.10176C18.4341 4.45368 18.5966 4.98375 18.6423 5.957C18.6873 7.01213 18.7004 7.33154 18.7004 10.0006C18.7004 12.6697 18.6873 12.9891 18.6385 14.0443C18.586 15.0175 18.4235 15.5476 18.2866 15.8995C18.0972 16.3689 17.8859 16.6971 17.5371 17.0521C17.1852 17.4003 16.8502 17.6153 16.3845 17.7972C16.0369 17.9347 15.4994 18.0973 14.5224 18.1429C13.4616 18.1879 13.1491 18.201 10.4725 18.201C7.79591 18.201 7.484 18.1879 6.42199 18.1391C5.44874 18.0866 4.9118 17.9241 4.55988 17.7872C4.08482 17.5978 3.75916 17.3866 3.41036 17.0378C3.05844 16.6858 2.83467 16.3508 2.66215 15.8851C2.52213 15.5376 2.36211 15 2.31023 14.023C2.2746 12.9747 2.25772 12.6497 2.25772 9.98562C2.25772 7.32279 2.2746 6.99713 2.31023 5.93574C2.36211 4.95875 2.52213 4.42243 2.66215 4.07363C2.83467 3.59795 3.05907 3.27291 3.41036 2.92099C3.75853 2.57282 4.08482 2.34779 4.55988 2.17152C4.9118 2.03463 5.43562 1.87211 6.41261 1.82335C7.47337 1.78522 7.78591 1.77147 10.4587 1.77147L10.5 1.80023ZM10.5 4.86748C7.66152 4.86748 5.36623 7.1659 5.36623 10.0013C5.36623 12.8397 7.66465 15.135 10.5 15.135C13.3385 15.135 15.6338 12.8366 15.6338 10.0013C15.6338 7.16277 13.3354 4.86748 10.5 4.86748ZM10.5 13.3348C8.65727 13.3348 7.16646 11.844 7.16646 10.0013C7.16646 8.15852 8.65727 6.66771 10.5 6.66771C12.3427 6.66771 13.8335 8.15852 13.8335 10.0013C13.8335 11.844 12.3427 13.3348 10.5 13.3348ZM17.0408 4.66246C17.0408 5.32692 16.5001 5.86323 15.8388 5.86323C15.1743 5.86323 14.638 5.32629 14.638 4.66246C14.638 4.00175 15.1781 3.46418 15.8388 3.46418C16.4995 3.46418 17.0408 4.00175 17.0408 4.66246Z" fill="#858585"/>
</g>
</svg>
