<svg width="21" height="21" viewBox="0 0 21 21" fill="none" xmlns="http://www.w3.org/2000/svg">
<g id="_&#195;&#171;&#195;&#142;&#195;&#147;&#195;&#136;_1" clip-path="url(#clip0_339_848)">
<path id="Vector" d="M12.4581 10.8614C12.2689 10.8256 11.5919 10.7123 10.8218 10.765C9.91239 10.8269 8.99181 11.2195 9.04303 11.9754C9.09453 12.7311 9.87369 13.2936 10.7831 13.2316C11.6802 13.1706 12.5731 12.184 12.5136 10.925C12.512 10.8934 12.4889 10.8674 12.4581 10.8614Z" fill="#858585"/>
<path id="Vector_2" d="M16.0751 0.559753H4.9248C2.48113 0.559753 0.5 2.54088 0.5 4.98456V16.1348C0.5 18.5786 2.48113 20.5596 4.9248 20.5596H16.0751C18.5189 20.5596 20.4999 18.5785 20.4999 16.1348V4.98456C20.5 2.54088 18.5189 0.559753 16.0751 0.559753ZM10.4886 16.7407C10.6396 16.7407 10.7934 16.7356 10.9514 16.7257C12.7764 16.6102 13.6574 16.112 14.359 15.2349C16.2421 12.8801 13.8418 11.3404 13.8418 11.3404C13.8418 11.3404 13.9219 12.0275 13.4463 12.8616C12.8001 13.9951 11.6824 14.4556 10.5995 14.4556C7.3983 14.4556 6.89662 10.8807 9.0346 9.81923C9.65996 9.50873 10.3994 9.40514 11.1071 9.40514C11.6249 9.40514 12.1257 9.46057 12.5528 9.531C12.5177 9.17205 12.405 8.8582 12.2161 8.59514C12.0016 8.29643 11.6932 8.07381 11.3239 7.9513C10.9226 7.81846 10.4753 7.81395 10.0647 7.93893C9.62562 8.07265 9.2511 8.34503 8.98222 8.72711L7.893 7.95989C8.33445 7.33322 8.95123 6.88522 9.67698 6.6645C10.3489 6.45993 11.0827 6.46793 11.7431 6.68676C12.3811 6.89832 12.9189 7.28957 13.2983 7.81802C13.7037 8.38286 13.91 9.08693 13.896 9.85692C14.3158 10.0526 16.1651 11.0155 16.4024 12.892C16.4884 13.4154 16.4538 13.9479 16.2991 14.4751C16.1381 15.0244 15.8449 15.5675 15.4276 16.0893C14.9122 16.7338 14.3481 17.1842 13.652 17.507C12.9391 17.8376 12.1084 18.0231 11.038 18.0911C10.8531 18.1027 10.6683 18.1087 10.4886 18.1087C8.47617 18.1087 6.79681 17.3689 5.63222 15.9695C5.22686 15.4825 4.88741 14.918 4.62333 14.2913C4.37816 13.7096 4.19614 13.0706 4.08265 12.392C3.97512 11.7497 3.92842 11.0691 3.94355 10.3688C3.95825 9.68988 4.031 8.99134 4.15991 8.29279C4.46953 6.61547 5.29074 5.23176 6.53476 4.29154C7.10832 3.85809 7.76118 3.52635 8.475 3.30607C8.81227 3.20203 9.16002 3.12376 9.51606 3.07108C9.8721 3.01885 10.2367 2.99237 10.607 2.99237C11.1023 2.99237 11.6059 3.04024 12.1039 3.13423C12.6008 3.22822 13.0946 3.36878 13.5717 3.55211C14.1804 3.78578 14.7481 4.15841 15.2585 4.65951C15.6396 5.03344 15.9896 5.48013 16.2993 5.98676C16.8036 6.81262 17.0342 7.683 17.0592 7.7623L15.7401 8.10597C15.7401 8.10597 14.979 5.55841 13.0812 4.82945C12.2743 4.51968 11.4295 4.3608 10.607 4.3608C8.22402 4.3608 6.03104 5.69358 5.50549 8.5413C4.74613 12.6556 6.14336 16.7405 10.4886 16.7405V16.7407Z" fill="#858585"/>
</g>
<defs>
<clipPath id="clip0_339_848">
<rect width="20" height="20" fill="white" transform="translate(0.5 0.559753)"/>
</clipPath>
</defs>
</svg>
