<svg width="21" height="21" viewBox="0 0 21 21" fill="none" xmlns="http://www.w3.org/2000/svg">
<g id="&#240;&#159;&#166;&#134; icon &#34;linkedin&#34;">
<path id="Vector" d="M17.5375 17.5826H14.5794V12.9408C14.5794 11.8339 14.5562 10.4114 13.0325 10.4114C11.49 10.4114 11.255 11.612 11.255 12.8589V17.582H8.29313V8.03764H11.1381V9.33952H11.1763C11.5738 8.58764 12.5406 7.79702 13.9831 7.79702C16.9837 7.79702 17.5406 9.77264 17.5406 12.3414V17.582L17.5375 17.5826ZM4.94687 6.73327C3.9925 6.73327 3.2275 5.96139 3.2275 5.01077C3.2275 4.06327 3.99562 3.29264 4.94687 3.29264C5.89812 3.29264 6.66875 4.06327 6.66875 5.01077C6.66875 5.96139 5.89812 6.73327 4.94687 6.73327ZM6.43062 17.5826H3.4625V8.03827H6.43062V17.5826ZM19.0225 0.538269H1.975C1.16062 0.538269 0.5 1.18264 0.5 1.98014V19.097C0.5 19.8945 1.16062 20.5389 1.975 20.5389H19.0194C19.8325 20.5389 20.5 19.8945 20.5 19.097V1.98014C20.5 1.18264 19.8325 0.538269 19.0194 0.538269L19.0225 0.538269Z" fill="#ffffff"/>
</g>
</svg>
