<svg width="25" height="19" viewBox="0 0 25 19" fill="none" xmlns="http://www.w3.org/2000/svg">
<g id="&#240;&#159;&#166;&#134; icon &#34;youtube icon&#34;">
<path id="Vector" d="M24.4781 3.25435C24.1811 2.20013 23.359 1.37331 22.3001 1.08103C20.3503 0.559778 12.5119 0.559778 12.5119 0.559778C12.5119 0.559778 4.68844 0.547274 2.71831 1.08103C1.66486 1.37409 0.838827 2.20013 0.544987 3.25435C0.175342 5.25262 -0.00830802 7.27512 0.000288363 9.30699C-0.00361908 11.3256 0.179249 13.345 0.544987 15.3307C0.838827 16.3849 1.66486 17.2118 2.71831 17.5087C4.66813 18.03 12.5119 18.03 12.5119 18.03C12.5119 18.03 20.3307 18.03 22.3001 17.5087C23.359 17.2118 24.1811 16.3857 24.4781 15.3307C24.8368 13.345 25.0119 11.3256 24.9994 9.30699C25.0119 7.27512 24.8407 5.25262 24.4781 3.25435ZM10.008 13.048V5.54959L16.5327 9.30699L10.008 13.048Z" fill="#ffffff"/>
</g>
</svg>
