<svg width="21" height="24" viewBox="0 0 21 24" fill="none" xmlns="http://www.w3.org/2000/svg">
<g id="&#240;&#159;&#166;&#134; icon &#34;tiktok&#34;">
<path id="Vector" d="M11.004 0.558063C12.2605 0.538879 13.5075 0.548471 14.7544 0.538879C14.8312 2.00644 15.3587 3.50278 16.433 4.53871C17.5073 5.60341 19.0228 6.0926 20.5 6.25566V10.1212C19.1188 10.0732 17.7279 9.78548 16.4714 9.19078C15.9247 8.94139 15.4163 8.62486 14.9175 8.29874C14.9079 11.0996 14.9271 13.9004 14.8983 16.6917C14.8216 18.0345 14.3804 19.3678 13.6034 20.4709C12.3469 22.3125 10.1695 23.5115 7.9346 23.5499C6.56295 23.6266 5.19131 23.2525 4.0211 22.5619C2.08353 21.4205 0.721479 19.3294 0.520049 17.0849C0.500865 16.6053 0.491273 16.1257 0.510457 15.6557C0.683111 13.8333 1.58475 12.0875 2.98517 10.8981C4.57743 9.51691 6.80275 8.85507 8.88419 9.24833C8.90338 10.6679 8.84583 12.0875 8.84583 13.5071C7.89623 13.2002 6.78357 13.2865 5.94907 13.862C5.34478 14.2553 4.88437 14.8596 4.64457 15.5406C4.44314 16.0298 4.50069 16.567 4.51028 17.0849C4.74049 18.658 6.25601 19.9817 7.86745 19.8378C8.94175 19.8282 9.96808 19.2047 10.5244 18.2935C10.7067 17.977 10.9081 17.6509 10.9177 17.2768C11.0136 15.5598 10.9752 13.8525 10.9848 12.1355C10.9944 8.26996 10.9752 4.41401 11.004 0.558063Z" fill="#ffffff"/>
</g>
</svg>
