<svg width="175" height="54" viewBox="0 0 175 54" fill="none" xmlns="http://www.w3.org/2000/svg">
<g id="Certification Icons" clip-path="url(#clip0_94_1201)">
<path id="Vector" d="M168.255 22.7683C167.874 22.3822 167.796 21.7819 168.065 21.3089L168.738 20.1269C168.968 19.7242 168.831 19.2075 168.433 18.9753L167.267 18.2928C166.8 18.0195 166.571 17.4609 166.711 16.9329L167.059 15.6149C167.178 15.1658 166.914 14.7028 166.47 14.5821L165.169 14.2292C164.649 14.0879 164.285 13.6076 164.285 13.0617V11.6972C164.285 11.2322 163.912 10.8541 163.453 10.8541H162.106C161.567 10.8541 161.093 10.486 160.953 9.95797L160.604 8.63993C160.547 8.42235 160.409 8.2406 160.217 8.12783C160.024 8.01506 159.8 7.98521 159.585 8.04359L158.284 8.39648C157.763 8.53777 157.211 8.30627 156.942 7.83331L156.268 6.65125C156.039 6.24861 155.529 6.10997 155.131 6.3428L153.964 7.02537C153.498 7.29866 152.906 7.21973 152.524 6.833L151.571 5.86785C151.414 5.70865 151.205 5.62109 150.983 5.62109C150.76 5.62109 150.551 5.70865 150.394 5.86785L149.441 6.833C149.06 7.21906 148.468 7.298 148.001 7.02537L146.834 6.3428C146.437 6.10997 145.927 6.24861 145.697 6.65125L145.024 7.83331C144.754 8.30627 144.203 8.53777 143.681 8.39648L142.38 8.04359C141.937 7.92286 141.48 8.19085 141.361 8.63993L141.012 9.95797C140.872 10.4853 140.398 10.8541 139.859 10.8541H138.513C138.054 10.8541 137.68 11.2322 137.68 11.6972V13.0617C137.68 13.6076 137.317 14.0879 136.796 14.2292L135.495 14.5821C135.052 14.7021 134.788 15.1658 134.906 15.6149L135.255 16.9329C135.394 17.4603 135.165 18.0195 134.699 18.2928L133.532 18.9753C133.339 19.0881 133.202 19.2698 133.144 19.4874C133.087 19.705 133.116 19.9319 133.227 20.1275L133.901 21.3096C134.171 21.7826 134.093 22.3822 133.711 22.7689L132.759 23.7341C132.434 24.0631 132.434 24.5977 132.759 24.9268L133.711 25.8919C134.092 26.278 134.17 26.8783 133.901 27.3512L133.227 28.5333C132.998 28.9359 133.134 29.4527 133.532 29.6848L134.699 30.3674C135.165 30.6407 135.394 31.1992 135.255 31.7273L134.906 33.0453C134.849 33.2629 134.878 33.4904 134.989 33.6854C135.101 33.8804 135.28 34.0197 135.495 34.0781L136.796 34.431C137.316 34.5723 137.68 35.0525 137.68 35.5985V36.9629C137.68 37.4279 138.054 37.806 138.513 37.806H139.859C140.398 37.806 140.872 38.1742 141.012 38.7022L141.361 40.0202C141.479 40.4693 141.937 40.7366 142.38 40.6166L143.681 40.2637C144.202 40.1224 144.754 40.3539 145.024 40.8269L145.697 42.0089C145.927 42.4116 146.437 42.5502 146.834 42.3174L148.001 41.6348C148.187 41.526 148.392 41.4729 148.597 41.4729C148.906 41.4729 149.211 41.5943 149.441 41.8265L150.394 42.7917C150.551 42.9509 150.76 43.0384 150.983 43.0384C151.205 43.0384 151.414 42.9509 151.571 42.7917L152.524 41.8265C152.905 41.4404 153.498 41.3615 153.964 41.6341L155.131 42.3167C155.529 42.5489 156.039 42.4109 156.268 42.0083L156.942 40.8262C157.211 40.3532 157.763 40.1217 158.284 40.263L159.585 40.6159C160.028 40.736 160.485 40.4687 160.604 40.0196L160.953 38.7015C161.093 38.1742 161.567 37.8054 162.106 37.8054H163.453C163.912 37.8054 164.285 37.4273 164.285 36.9623V35.5978C164.285 35.0519 164.648 34.5716 165.169 34.4303L166.47 34.0774C166.685 34.0191 166.865 33.8798 166.976 33.6847C167.087 33.4897 167.117 33.2622 167.059 33.0446L166.711 31.7266C166.571 31.1992 166.8 30.64 167.267 30.3668L168.433 29.6842C168.831 29.452 168.968 28.9353 168.738 28.5326L168.064 27.3506C167.794 26.8776 167.872 26.278 168.254 25.8912L169.207 24.9261C169.364 24.7669 169.45 24.5553 169.45 24.3298C169.45 24.1042 169.364 23.8926 169.207 23.7334L168.254 22.7683H168.255ZM167.675 24.9891L166.809 25.8667C166.514 26.1652 166.454 26.6275 166.662 26.993L167.275 28.0683C167.529 28.5147 167.379 29.0852 166.938 29.3432L165.877 29.9641C165.516 30.1751 165.34 30.6056 165.448 31.0135L165.765 32.2121C165.897 32.7096 165.605 33.2217 165.114 33.3551L163.931 33.6761C163.528 33.7856 163.248 34.1551 163.248 34.5776V35.8187C163.248 36.3341 162.835 36.752 162.326 36.752H161.101C160.684 36.752 160.32 37.0359 160.212 37.4439L159.895 38.6425C159.763 39.14 159.258 39.4359 158.766 39.3025L157.583 38.9815C157.181 38.872 156.756 39.0505 156.547 39.416L155.935 40.4912C155.681 40.9376 155.117 41.0902 154.676 40.8328L153.615 40.212C153.254 40.001 152.798 40.0614 152.503 40.3605L151.637 41.2381C151.277 41.6023 150.694 41.6023 150.334 41.2381L149.468 40.3605C149.174 40.062 148.717 40.001 148.356 40.212L147.295 40.8328C146.854 41.0902 146.291 40.9376 146.037 40.4912L145.424 39.416C145.215 39.0505 144.791 38.872 144.388 38.9815L143.205 39.3025C142.714 39.4359 142.208 39.1407 142.077 38.6425L141.76 37.4439C141.652 37.0359 141.287 36.752 140.87 36.752H139.645C139.136 36.752 138.723 36.3341 138.723 35.8187V34.5776C138.723 34.1551 138.443 33.7856 138.041 33.6761L136.857 33.3551C136.366 33.2217 136.074 32.7103 136.206 32.2121L136.523 31.0135C136.631 30.6056 136.455 30.1751 136.094 29.9641L135.033 29.3432C134.592 29.0859 134.441 28.5147 134.695 28.0683L135.308 26.993C135.516 26.6275 135.457 26.1652 135.162 25.8667L134.295 24.9891C133.936 24.6249 133.936 24.0339 134.295 23.6697L135.162 22.7921C135.456 22.4936 135.516 22.0313 135.308 21.6658L134.695 20.5905C134.441 20.1441 134.592 19.5737 135.033 19.3156L136.094 18.6947C136.455 18.4838 136.631 18.0533 136.523 17.6453L136.206 16.4467C136.074 15.9492 136.366 15.4371 136.857 15.3038L138.041 14.9827C138.443 14.8733 138.723 14.5038 138.723 14.0813V12.8402C138.723 12.3247 139.136 11.9068 139.645 11.9068H140.87C141.287 11.9068 141.652 11.6229 141.76 11.215L142.077 10.0163C142.208 9.51884 142.713 9.223 143.205 9.35633L144.388 9.67738C144.791 9.78683 145.215 9.60839 145.424 9.2429L146.037 8.16763C146.291 7.72121 146.854 7.56864 147.295 7.82601L148.356 8.44689C148.717 8.65784 149.174 8.59747 149.468 8.29831L150.334 7.42072C150.694 7.05655 151.277 7.05655 151.637 7.42072L152.503 8.29831C152.798 8.59681 153.254 8.65784 153.615 8.44689L154.676 7.82601C155.117 7.56864 155.68 7.72121 155.935 8.16763L156.547 9.2429C156.756 9.60839 157.181 9.78683 157.583 9.67738L158.766 9.35633C159.258 9.223 159.763 9.51818 159.895 10.0163L160.212 11.215C160.32 11.6229 160.684 11.9068 161.101 11.9068H162.326C162.835 11.9068 163.248 12.3247 163.248 12.8402V14.0813C163.248 14.5038 163.528 14.8733 163.931 14.9827L165.114 15.3038C165.605 15.4371 165.897 15.9485 165.765 16.4467L165.448 17.6453C165.34 18.0533 165.516 18.4838 165.877 18.6947L166.938 19.3156C167.379 19.573 167.529 20.1441 167.275 20.5905L166.662 21.6658C166.454 22.0313 166.514 22.4936 166.809 22.7921L167.675 23.6697C168.035 24.0339 168.035 24.6249 167.675 24.9891Z" fill="white"/>
<path id="Vector_2" d="M174.618 25.2639C175.128 24.7478 175.128 23.9114 174.618 23.3953L173.391 22.1522C172.973 21.729 172.889 21.075 173.184 20.5569L174.051 19.0346C174.411 18.4024 174.198 17.5945 173.574 17.2296L172.071 16.3507C171.56 16.0515 171.311 15.4419 171.464 14.8642L171.913 13.1667C172.099 12.4616 171.686 11.7372 170.99 11.5482L169.315 11.0931C168.744 10.9386 168.348 10.4145 168.348 9.81687V8.05903C168.348 7.32937 167.764 6.73767 167.044 6.73767H165.309C164.718 6.73767 164.202 6.33569 164.049 5.75859L163.6 4.06112C163.413 3.356 162.698 2.9381 162.002 3.12648L160.327 3.58153C159.756 3.73609 159.155 3.48402 158.859 2.96596L157.992 1.44361C157.632 0.81145 156.834 0.595204 156.21 0.960037L154.708 1.83895C154.196 2.13812 153.551 2.05188 153.133 1.62868L151.906 0.38559C151.396 -0.130483 150.571 -0.130483 150.061 0.38559L148.834 1.62868C148.417 2.05188 147.771 2.13745 147.26 1.83895L145.757 0.960037C145.133 0.595204 144.335 0.81145 143.975 1.44361L143.108 2.96596C142.812 3.48402 142.211 3.73609 141.64 3.58153L139.965 3.12648C139.269 2.93743 138.554 3.356 138.367 4.06112L137.918 5.75859C137.766 6.33636 137.248 6.73767 136.658 6.73767H134.923C134.203 6.73767 133.619 7.32937 133.619 8.05903V9.81687C133.619 10.4152 133.222 10.9386 132.652 11.0931L130.977 11.5482C130.281 11.7372 129.868 12.4616 130.054 13.1667L130.504 14.8642C130.656 15.4419 130.407 16.0515 129.896 16.3507L128.393 17.2296C127.769 17.5945 127.556 18.4024 127.916 19.0346L128.784 20.5569C129.079 21.075 128.994 21.729 128.576 22.1522L127.349 23.3953C126.84 23.9114 126.84 24.7478 127.349 25.2639L128.576 26.507C128.994 26.9302 129.078 27.5843 128.784 28.1023L127.916 29.6247C127.556 30.2568 127.769 31.0648 128.393 31.4296L129.896 32.3085C130.407 32.6077 130.656 33.2173 130.504 33.7951L130.054 35.4925C129.868 36.1976 130.281 36.922 130.977 37.1111L132.652 37.5661C133.223 37.7207 133.619 38.2447 133.619 38.8424V40.6002C133.619 41.3299 134.203 41.9216 134.923 41.9216H136.658C137.249 41.9216 137.766 42.3235 137.918 42.9006L138.367 44.5981C138.554 45.3032 139.269 45.7211 139.965 45.5327L141.64 45.0777C142.211 44.9231 142.812 45.1752 143.108 45.6933L143.975 47.2156C144.335 47.8478 145.133 48.064 145.757 47.6992L147.26 46.8203C147.771 46.5211 148.417 46.6073 148.834 47.0305L150.061 48.2736C150.571 48.7897 151.396 48.7897 151.906 48.2736L153.133 47.0305C153.551 46.6073 154.196 46.5218 154.708 46.8203L156.21 47.6992C156.834 48.064 157.632 47.8478 157.992 47.2156L158.859 45.6933C159.155 45.1752 159.756 44.9231 160.327 45.0777L162.002 45.5327C162.698 45.7218 163.413 45.3032 163.6 44.5981L164.049 42.9006C164.202 42.3229 164.719 41.9216 165.309 41.9216H167.044C167.764 41.9216 168.348 41.3299 168.348 40.6002V38.8424C168.348 38.244 168.745 37.7207 169.315 37.5661L170.99 37.1111C171.686 36.922 172.099 36.1976 171.913 35.4925L171.464 33.7951C171.311 33.2173 171.56 32.6077 172.071 32.3085L173.574 31.4296C174.198 31.0648 174.411 30.2568 174.051 29.6247L173.184 28.1023C172.888 27.5843 172.973 26.9302 173.391 26.507L174.618 25.2639ZM171.103 25.2599L170.066 26.3107C169.776 26.6039 169.717 27.0596 169.922 27.4191L170.655 28.706C171.013 29.3341 170.8 30.1407 170.18 30.5036L168.909 31.2465C168.555 31.4541 168.381 31.8787 168.487 32.2793L168.867 33.7148C168.957 34.0544 168.911 34.4093 168.737 34.7131C168.564 35.0176 168.283 35.2351 167.948 35.326L166.531 35.7108C166.136 35.8182 165.86 36.1831 165.86 36.5976V38.0835C165.86 38.8092 165.277 39.3996 164.56 39.3996H163.094C162.685 39.3996 162.324 39.6795 162.218 40.0801L161.839 41.5156C161.653 42.2167 160.94 42.634 160.248 42.4463L158.831 42.0615C158.435 41.9541 158.016 42.1298 157.811 42.4894L157.078 43.7762C156.72 44.4044 155.923 44.6207 155.303 44.2578L154.033 43.5149C153.679 43.3073 153.228 43.3676 152.939 43.6608L151.902 44.7115C151.656 44.9603 151.33 45.0969 150.983 45.0969C150.636 45.0969 150.31 44.9603 150.065 44.7115L149.027 43.6608C148.738 43.3676 148.288 43.3073 147.933 43.5149L146.663 44.2578C146.043 44.6207 145.247 44.4044 144.889 43.7762L144.155 42.4894C143.95 42.1298 143.531 41.9541 143.136 42.0615L141.719 42.4463C141.027 42.634 140.313 42.2167 140.128 41.5156L139.748 40.0801C139.642 39.6795 139.282 39.3996 138.873 39.3996H137.406C136.69 39.3996 136.107 38.8092 136.107 38.0835V36.5976C136.107 36.1831 135.831 35.8182 135.435 35.7108L134.018 35.326C133.683 35.2351 133.403 35.0176 133.229 34.7131C133.056 34.4086 133.01 34.0537 133.1 33.7141L133.479 32.2787C133.586 31.878 133.412 31.4535 133.057 31.2459L131.787 30.5029C131.167 30.1401 130.953 29.3335 131.312 28.7053L132.045 27.4184C132.25 27.0596 132.19 26.6039 131.901 26.31L130.864 25.2593C130.357 24.7459 130.357 23.9114 130.864 23.398L131.901 22.3472C132.19 22.054 132.25 21.5983 132.045 21.2388L131.312 19.9519C131.138 19.6475 131.092 19.2926 131.182 18.9536C131.272 18.614 131.486 18.3301 131.787 18.1543L133.057 17.4114C133.412 17.2038 133.586 16.7792 133.479 16.3786L133.1 14.9431C133.01 14.6035 133.056 14.2486 133.229 13.9448C133.403 13.6403 133.683 13.4227 134.018 13.3319L135.435 12.9471C135.831 12.8397 136.107 12.4748 136.107 12.0603V10.5744C136.107 9.84871 136.69 9.25834 137.406 9.25834H138.873C139.282 9.25834 139.642 8.97841 139.748 8.57776L140.128 7.14231C140.313 6.44116 141.027 6.02393 141.719 6.21165L143.136 6.59638C143.531 6.70384 143.95 6.52806 144.155 6.16853L144.889 4.88167C145.247 4.25349 146.043 4.03724 146.663 4.40009L147.933 5.14302C148.288 5.35064 148.738 5.29028 149.027 4.99709L150.065 3.94637C150.31 3.69762 150.636 3.56097 150.983 3.56097C151.33 3.56097 151.656 3.69762 151.902 3.94637L152.939 4.99709C153.228 5.29028 153.678 5.35064 154.033 5.14302L155.303 4.40009C155.924 4.03724 156.72 4.25349 157.078 4.88167L157.811 6.16853C158.016 6.5274 158.434 6.70384 158.831 6.59638L160.248 6.21165C160.583 6.12077 160.933 6.16721 161.233 6.34299C161.533 6.51877 161.748 6.80268 161.838 7.14231L162.218 8.57776C162.324 8.97841 162.684 9.25834 163.093 9.25834H164.56C165.276 9.25834 165.859 9.84871 165.859 10.5744V12.0603C165.859 12.4748 166.135 12.8397 166.531 12.9471L167.948 13.3319C168.283 13.4227 168.563 13.6403 168.737 13.9448C168.91 14.2493 168.956 14.6041 168.866 14.9431L168.486 16.3786C168.38 16.7792 168.554 17.2038 168.909 17.4114L170.179 18.1543C170.799 18.5172 171.012 19.3238 170.654 19.9519L169.921 21.2388C169.716 21.5977 169.776 22.0534 170.065 22.3472L171.102 23.398C171.348 23.6467 171.483 23.9771 171.483 24.3286C171.483 24.6802 171.348 25.0105 171.102 25.2593L171.103 25.2599Z" fill="white"/>
<path id="Vector_3" d="M149.665 25.2212L146.508 22.0233C145.864 21.3706 144.82 21.3706 144.176 22.0233L143.087 23.1258C142.443 23.7785 142.443 24.8358 143.087 25.4886L148.498 30.9704C149.143 31.6231 150.186 31.6231 150.831 30.9704L159.332 22.3576C159.976 21.7049 159.976 20.6476 159.332 19.9948L158.244 18.8924C157.6 18.2397 156.556 18.2397 155.912 18.8924L149.665 25.2206L149.665 25.2212Z" fill="white"/>
<path id="Vector_4" d="M143.334 47.5908L142.466 46.0684C142.366 45.8933 142.18 45.7845 141.98 45.7845C141.932 45.7845 141.883 45.7911 141.835 45.8037L140.159 46.2588C139.986 46.3059 139.807 46.3298 139.628 46.3298C138.704 46.3298 137.891 45.6976 137.652 44.7922L137.202 43.0947C137.137 42.8459 136.914 42.6735 136.661 42.6735H134.926C133.795 42.6735 132.878 41.7448 132.878 40.5992V38.8414C132.878 38.724 132.842 38.6132 132.78 38.521L128.103 44.4306C127.772 44.8492 127.993 45.4754 128.512 45.5855L136.406 47.2671L140.557 53.6749C140.851 54.1286 141.515 54.102 141.773 53.6271L144.537 48.5453C144.037 48.3974 143.601 48.0591 143.334 47.5914L143.334 47.5908Z" fill="white"/>
<path id="Vector_5" d="M158.636 47.5908L159.504 46.0684C159.604 45.8933 159.79 45.7845 159.99 45.7845C160.038 45.7845 160.087 45.7911 160.135 45.8037L161.81 46.2588C161.984 46.3059 162.163 46.3298 162.341 46.3298C163.266 46.3298 164.079 45.6976 164.318 44.7922L164.767 43.0947C164.833 42.8459 165.055 42.6735 165.309 42.6735H167.044C168.175 42.6735 169.091 41.7448 169.091 40.5992V38.8414C169.091 38.724 169.127 38.6132 169.19 38.521L173.867 44.4306C174.198 44.8492 173.977 45.4754 173.458 45.5855L165.564 47.2671L161.413 53.6749C161.119 54.1286 160.454 54.102 160.196 53.6271L157.433 48.5453C157.933 48.3974 158.368 48.0591 158.636 47.5914L158.636 47.5908Z" fill="white"/>
<path id="Vector_6" d="M31.9184 28.7046H32.82C32.8534 28.7046 32.8796 28.6907 32.8986 28.6628C32.9176 28.635 32.9202 28.6058 32.9058 28.5746L32.4606 27.5856C32.4442 27.5498 32.416 27.5312 32.3767 27.5299C32.3375 27.5285 32.3093 27.5458 32.2929 27.5823L31.8333 28.5713C31.8189 28.6025 31.8215 28.6323 31.8405 28.6615C31.8595 28.6907 31.8857 28.7046 31.9191 28.7046H31.9184Z" fill="white"/>
<path id="Vector_7" d="M13.5425 26.1175C13.4128 26.0054 13.2629 25.9497 13.0913 25.9497H12.4104C12.358 25.9497 12.3141 25.9676 12.2788 26.0041C12.2434 26.0399 12.2251 26.0837 12.2251 26.1341V27.0694C12.2251 27.1225 12.2428 27.1669 12.2788 27.2027C12.3141 27.2386 12.3587 27.2571 12.4104 27.2571H13.1195C13.3094 27.2571 13.4678 27.1862 13.5955 27.0442C13.7225 26.9023 13.7775 26.7338 13.7612 26.5387C13.7448 26.3703 13.6715 26.2303 13.5418 26.1182L13.5425 26.1175Z" fill="white"/>
<path id="Vector_8" d="M50.6479 19.063H2.70876C1.21524 19.063 0 20.2941 0 21.8072V32.867C0 34.38 1.21524 35.6112 2.70876 35.6112H50.6473C52.1408 35.6112 53.356 34.38 53.356 32.867V21.8072C53.356 20.2941 52.1408 19.063 50.6473 19.063H50.6479ZM8.54401 22.1296H42.7626C42.817 22.1296 42.8608 22.174 42.8608 22.2291C42.8608 22.2841 42.817 22.3286 42.7626 22.3286H8.54401C8.48967 22.3286 8.4458 22.2841 8.4458 22.2291C8.4458 22.174 8.48967 22.1296 8.54401 22.1296ZM39.0992 25.3003V30.1705C39.0992 30.2116 39.0848 30.2468 39.0567 30.2773C39.0278 30.3072 38.9938 30.3224 38.9532 30.3224H38.3083C38.2677 30.3224 38.233 30.3072 38.2028 30.2773C38.1734 30.2475 38.1583 30.2116 38.1583 30.1705V25.3003C38.1583 25.2592 38.1734 25.224 38.2028 25.1935C38.2323 25.1637 38.2677 25.1484 38.3083 25.1484H38.9532C38.9938 25.1484 39.0278 25.1637 39.0567 25.1935C39.0855 25.2234 39.0992 25.2592 39.0992 25.3003ZM35.3736 25.9935C35.3441 25.9643 35.3088 25.9504 35.2682 25.9504H34.5486C34.508 25.9504 34.4733 25.9351 34.4432 25.9053C34.4137 25.8754 34.3987 25.8396 34.3987 25.7985V25.3003C34.3987 25.2592 34.4137 25.224 34.4432 25.1935C34.4726 25.1637 34.508 25.1484 34.5486 25.1484H37.2286C37.2691 25.1484 37.3038 25.1637 37.334 25.1935C37.3634 25.2234 37.3785 25.2592 37.3785 25.3003V25.7985C37.3785 25.8396 37.3634 25.8748 37.334 25.9053C37.3045 25.9351 37.2691 25.9504 37.2286 25.9504H36.509C36.4684 25.9504 36.4337 25.965 36.4035 25.9935C36.3741 26.0227 36.359 26.0572 36.359 26.0983V30.1705C36.359 30.2116 36.3446 30.2468 36.3165 30.2773C36.2877 30.3072 36.2536 30.3224 36.213 30.3224H35.5681C35.5275 30.3224 35.4928 30.3072 35.4627 30.2773C35.4332 30.2475 35.4181 30.2116 35.4181 30.1705V26.0983C35.4181 26.0572 35.4031 26.0227 35.3736 25.9935ZM26.81 28.5891C26.9658 28.8757 27.1812 29.1019 27.4569 29.2677C27.7325 29.4335 28.0331 29.5171 28.3585 29.5171C28.7173 29.5171 29.0401 29.4196 29.3275 29.2246C29.3655 29.1981 29.4081 29.1881 29.4559 29.1941C29.5037 29.2001 29.5423 29.2226 29.5737 29.2611L29.9338 29.7121C29.9672 29.7553 29.9803 29.8043 29.9731 29.8581C29.9659 29.9125 29.9397 29.9549 29.8945 29.9861C29.6857 30.1327 29.4624 30.2461 29.2247 30.3257C28.9327 30.4246 28.6439 30.4737 28.3585 30.4737C28.073 30.4737 27.7764 30.4246 27.4889 30.3257C26.9494 30.138 26.5088 29.8077 26.167 29.3347C25.8252 28.8618 25.6536 28.3278 25.6536 27.7334C25.6536 27.1391 25.8226 26.6124 26.1598 26.1394C26.497 25.6665 26.9344 25.3361 27.4713 25.1484C27.7659 25.0449 28.0619 24.9932 28.3585 24.9932C28.6315 24.9932 28.9189 25.0449 29.2208 25.1484C29.5534 25.2618 29.8481 25.4263 30.1047 25.6433C30.1473 25.6791 30.1702 25.7242 30.1722 25.7786C30.1748 25.833 30.1564 25.8801 30.1185 25.9212L29.7158 26.3325C29.6824 26.3663 29.6418 26.3849 29.5947 26.3882C29.5469 26.3915 29.5043 26.3782 29.4663 26.3464C29.0957 26.0386 28.6682 25.9086 28.1836 25.9563C27.7515 25.9975 27.3835 26.1812 27.0804 26.5089C26.7772 26.8359 26.6168 27.22 26.5978 27.6605C26.5834 27.9928 26.6541 28.3019 26.81 28.5885V28.5891ZM30.0478 30.1924L32.3034 25.3182C32.3198 25.2824 32.3479 25.2638 32.3872 25.2638C32.4265 25.2638 32.454 25.2817 32.471 25.3182L34.6665 30.1924C34.6809 30.2236 34.6782 30.2541 34.6593 30.2826C34.6403 30.3118 34.6141 30.3257 34.5807 30.3257H33.8035C33.7321 30.3257 33.6797 30.2906 33.647 30.2209L33.408 29.6903C33.3916 29.6544 33.3628 29.6359 33.3222 29.6359H31.3979C31.3599 29.6359 31.3324 29.6538 31.316 29.6903L31.0698 30.2249C31.0391 30.2926 30.9867 30.3257 30.9134 30.3257H30.1296C30.0962 30.3257 30.0707 30.3111 30.053 30.2826C30.0353 30.2541 30.0334 30.2236 30.0478 30.1924ZM24.9485 25.3003V30.1705C24.9485 30.2116 24.9341 30.2468 24.9059 30.2773C24.8771 30.3072 24.843 30.3224 24.8024 30.3224H24.1575C24.1169 30.3224 24.0822 30.3072 24.0521 30.2773C24.0226 30.2475 24.0076 30.2116 24.0076 30.1705V25.3003C24.0076 25.2592 24.0226 25.224 24.0521 25.1935C24.0816 25.1637 24.1169 25.1484 24.1575 25.1484H24.8024C24.843 25.1484 24.8771 25.1637 24.9059 25.1935C24.9347 25.2234 24.9485 25.2592 24.9485 25.3003ZM21.2955 27.551C21.3243 27.5809 21.3584 27.5961 21.399 27.5961H22.2652C22.3058 27.5961 22.3399 27.6114 22.3687 27.6412C22.3975 27.6711 22.4113 27.7069 22.4113 27.748V28.4014C22.4113 28.4425 22.3968 28.477 22.3687 28.5062C22.3399 28.5354 22.3058 28.5493 22.2652 28.5493H21.399C21.3584 28.5493 21.3243 28.5646 21.2955 28.5944C21.2667 28.6243 21.253 28.6601 21.253 28.7012V30.1705C21.253 30.2116 21.2379 30.2468 21.2085 30.2773C21.179 30.3072 21.1436 30.3224 21.103 30.3224H20.4581C20.4175 30.3224 20.3828 30.3072 20.3527 30.2773C20.3232 30.2475 20.3081 30.2116 20.3081 30.1705V25.2247C20.3081 25.2028 20.3232 25.1849 20.3527 25.1703C20.3821 25.1557 20.4175 25.1484 20.4581 25.1484H23.1132C23.1538 25.1484 23.1878 25.1557 23.2166 25.1703C23.2454 25.1849 23.2592 25.2028 23.2592 25.2247V25.9537C23.2592 25.9948 23.2448 26.0293 23.2166 26.0585C23.1885 26.0877 23.1538 26.1016 23.1132 26.1016H21.399C21.3584 26.1016 21.3243 26.1169 21.2955 26.1467C21.2667 26.1766 21.253 26.2124 21.253 26.2535V27.4449C21.253 27.486 21.2674 27.5212 21.2955 27.5517V27.551ZM19.5742 25.3003V30.1705C19.5742 30.2116 19.5598 30.2468 19.5316 30.2773C19.5028 30.3072 19.4687 30.3224 19.4281 30.3224H18.7832C18.7426 30.3224 18.7079 30.3072 18.6778 30.2773C18.6483 30.2475 18.6333 30.2116 18.6333 30.1705V25.3003C18.6333 25.2592 18.6483 25.224 18.6778 25.1935C18.7073 25.1637 18.7426 25.1484 18.7832 25.1484H19.4281C19.4687 25.1484 19.5028 25.1637 19.5316 25.1935C19.5604 25.2234 19.5742 25.2592 19.5742 25.3003ZM15.8486 25.9935C15.8191 25.9643 15.7837 25.9504 15.7431 25.9504H15.0236C14.983 25.9504 14.9483 25.9351 14.9181 25.9053C14.8887 25.8754 14.8736 25.8396 14.8736 25.7985V25.3003C14.8736 25.2592 14.8887 25.224 14.9181 25.1935C14.9476 25.163 14.983 25.1484 15.0236 25.1484H17.7035C17.7441 25.1484 17.7788 25.1637 17.8089 25.1935C17.8384 25.2234 17.8534 25.2592 17.8534 25.3003V25.7985C17.8534 25.8396 17.8384 25.8748 17.8089 25.9053C17.7795 25.9351 17.7441 25.9504 17.7035 25.9504H16.9839C16.9433 25.9504 16.9086 25.965 16.8785 25.9935C16.849 26.0227 16.834 26.0572 16.834 26.0983V30.1705C16.834 30.2116 16.8196 30.2468 16.7914 30.2773C16.7626 30.3072 16.7286 30.3224 16.688 30.3224H16.043C16.0024 30.3224 15.9677 30.3072 15.9376 30.2773C15.9081 30.2475 15.8931 30.2116 15.8931 30.1705V26.0983C15.8931 26.0572 15.878 26.0227 15.8486 25.9935ZM13.8476 28.2462L14.8736 30.0438C14.909 30.1042 14.9096 30.1659 14.8756 30.2295C14.8409 30.2932 14.7885 30.3251 14.7171 30.3251H14.0506C13.9818 30.3251 13.9294 30.2939 13.8941 30.2309L12.7967 28.3032C12.7613 28.2409 12.7077 28.209 12.6363 28.209H12.4117C12.3593 28.209 12.3154 28.2269 12.2801 28.2634C12.2447 28.2992 12.2264 28.3444 12.2264 28.3968V30.1334C12.2264 30.1864 12.2094 30.2309 12.1747 30.2667C12.14 30.3025 12.0968 30.3211 12.0444 30.3211H11.4669C11.4145 30.3211 11.3713 30.3032 11.3366 30.2667C11.3019 30.2309 11.2849 30.1858 11.2849 30.1334V25.3355C11.2849 25.2824 11.3025 25.238 11.3385 25.2021C11.3739 25.1663 11.4184 25.1477 11.4701 25.1477H13.3696C13.5693 25.1477 13.7585 25.1902 13.938 25.2758C14.1174 25.3613 14.2666 25.4821 14.3852 25.6386C14.5993 25.9205 14.706 26.2416 14.706 26.6024C14.706 26.8936 14.6346 27.1623 14.4919 27.4077C14.3491 27.6532 14.158 27.8469 13.9183 27.9888C13.8731 28.0127 13.8437 28.0498 13.8293 28.1009C13.8149 28.1513 13.8208 28.1997 13.8469 28.2455L13.8476 28.2462ZM7.67514 25.9212L7.27246 26.3325C7.23907 26.3663 7.19913 26.3849 7.15133 26.3882C7.10353 26.3915 7.06097 26.3782 7.02299 26.3464C6.6524 26.0386 6.22484 25.9086 5.74031 25.9563C5.30817 25.9975 4.94019 26.1812 4.63704 26.5089C4.33388 26.8359 4.17346 27.22 4.15448 27.6605C4.14007 27.9928 4.21079 28.3019 4.36662 28.5885C4.52245 28.875 4.73787 29.1012 5.01353 29.267C5.28918 29.4329 5.58972 29.5165 5.91513 29.5165C6.27394 29.5165 6.59674 29.419 6.88418 29.2239C6.92216 29.1974 6.96472 29.1874 7.01252 29.1934C7.06032 29.1994 7.09895 29.2219 7.13038 29.2604L7.4905 29.7115C7.52389 29.7546 7.53698 29.8037 7.52978 29.8574C7.52258 29.9118 7.49639 29.9543 7.45121 29.9854C7.24234 30.132 7.01907 30.2455 6.78139 30.3251C6.48936 30.4239 6.20061 30.473 5.91513 30.473C5.62966 30.473 5.33305 30.4239 5.04561 30.3251C4.50608 30.1373 4.06543 29.807 3.72364 29.334C3.38185 28.8611 3.21031 28.3271 3.21031 27.7328C3.21031 27.1384 3.37924 26.6117 3.71644 26.1388C4.05364 25.6658 4.49102 25.3355 5.02793 25.1477C5.32257 25.0443 5.61853 24.9925 5.91513 24.9925C6.18817 24.9925 6.47561 25.0443 6.77746 25.1477C7.11008 25.2612 7.40472 25.4257 7.66139 25.6426C7.70395 25.6784 7.72687 25.7235 7.72883 25.7779C7.73145 25.8323 7.71312 25.8794 7.67514 25.9205V25.9212ZM8.08306 30.2985C8.05359 30.2853 8.03853 30.2693 8.03853 30.2494V25.2201C8.03853 25.2008 8.05359 25.1842 8.08306 25.1696C8.11252 25.155 8.14788 25.1477 8.18847 25.1477H10.8435C10.8841 25.1477 10.9182 25.155 10.947 25.1696C10.9758 25.1842 10.9896 25.2008 10.9896 25.2201V25.8986C10.9896 25.9398 10.9751 25.9749 10.947 26.0054C10.9182 26.0353 10.8841 26.0505 10.8435 26.0505H9.12937C9.08877 26.0505 9.05473 26.0651 9.02592 26.0937C8.99711 26.1228 8.98336 26.1573 8.98336 26.1985V27.4515C8.98336 27.4926 8.99776 27.5278 9.02592 27.5583C9.05473 27.5882 9.08877 27.6034 9.12937 27.6034H9.99562C10.0362 27.6034 10.0703 27.6187 10.0991 27.6485C10.1279 27.6784 10.1416 27.7142 10.1416 27.7553V28.3543C10.1416 28.3954 10.1272 28.4306 10.0991 28.4611C10.0703 28.4909 10.0362 28.5062 9.99562 28.5062H9.12937C9.08877 28.5062 9.05473 28.5208 9.02592 28.5493C8.99711 28.5785 8.98336 28.613 8.98336 28.6541V29.2644C8.98336 29.3055 8.99776 29.3407 9.02592 29.3712C9.05473 29.401 9.08877 29.4163 9.12937 29.4163H10.8435C10.8841 29.4163 10.9182 29.4316 10.947 29.4614C10.9758 29.4913 10.9896 29.5271 10.9896 29.5682V30.2508C10.9896 30.27 10.9751 30.2866 10.947 30.2999C10.9182 30.3131 10.8841 30.3198 10.8435 30.3198H8.18847C8.14788 30.3198 8.11318 30.3131 8.08306 30.2999V30.2985ZM42.7626 33.3373H8.54401C8.48967 33.3373 8.4458 33.2928 8.4458 33.2378C8.4458 33.1827 8.48967 33.1383 8.54401 33.1383H42.7626C42.817 33.1383 42.8608 33.1827 42.8608 33.2378C42.8608 33.2928 42.817 33.3373 42.7626 33.3373ZM44.683 29.3347C44.3412 29.8077 43.8999 30.138 43.3611 30.3257C43.0736 30.4246 42.7849 30.4737 42.4948 30.4737C42.2048 30.4737 41.9127 30.4246 41.6253 30.3257C41.0858 30.138 40.6451 29.8077 40.3033 29.3347C39.9615 28.8618 39.79 28.3278 39.79 27.7334C39.79 27.1391 39.9589 26.6124 40.2961 26.1394C40.6333 25.6665 41.0707 25.3361 41.6076 25.1484C41.9023 25.0449 42.1982 24.9932 42.4948 24.9932C42.7914 24.9932 43.0841 25.0449 43.3787 25.1484C43.913 25.3361 44.3498 25.6665 44.6883 26.1394C45.0268 26.6124 45.1964 27.1437 45.1964 27.7334C45.1964 28.3231 45.0255 28.8618 44.683 29.3347ZM49.3725 30.4411C49.3725 30.4823 49.3626 30.5068 49.3423 30.5154C49.322 30.5241 49.2991 30.5121 49.2729 30.481L46.4967 27.4084C46.4679 27.3772 46.4437 27.3659 46.4234 27.3739C46.4031 27.3825 46.3933 27.4071 46.3933 27.4482V30.1705C46.3933 30.2116 46.3789 30.2468 46.3507 30.2773C46.3219 30.3072 46.2879 30.3224 46.2473 30.3224H45.6023C45.5617 30.3224 45.527 30.3072 45.4969 30.2773C45.4674 30.2475 45.4524 30.2116 45.4524 30.1705V25.0257C45.4524 24.9846 45.4622 24.96 45.4825 24.9514C45.5028 24.9428 45.5257 24.9547 45.5519 24.9859L48.3281 28.0797C48.3543 28.1109 48.3772 28.1221 48.3975 28.1142C48.4178 28.1056 48.4276 28.081 48.4276 28.0399V25.1444C48.4276 25.1444 48.4774 25.1411 48.5776 25.1411H49.2225C49.322 25.1411 49.3725 25.1424 49.3725 25.1444V30.4405V30.4411Z" fill="white"/>
<path id="Vector_9" d="M43.3755 26.1898C43.1044 26.03 42.8098 25.9497 42.4916 25.9497C42.1733 25.9497 41.8787 26.03 41.6076 26.1898C41.3366 26.3497 41.1231 26.5666 40.966 26.8399C40.8095 27.1132 40.7309 27.411 40.7309 27.7334C40.7309 28.0558 40.8095 28.3536 40.966 28.6269C41.1224 28.9002 41.3366 29.1165 41.6076 29.277C41.8787 29.4369 42.1733 29.5171 42.4916 29.5171C42.8098 29.5171 43.1044 29.4369 43.3755 29.277C43.6466 29.1171 43.8607 28.9002 44.0185 28.6269C44.1763 28.3536 44.2555 28.0558 44.2555 27.7334C44.2555 27.411 44.1763 27.1132 44.0185 26.8399C43.8607 26.5666 43.6459 26.3504 43.3755 26.1898Z" fill="white"/>
<path id="Vector_10" d="M5.28264 18.349H12.0909C15.0871 13.368 20.4993 10.0427 26.6784 10.0427C32.8574 10.0427 38.269 13.3687 41.2652 18.349H48.0734L48.3157 17.6737C48.4492 17.3023 48.26 16.8903 47.892 16.755L46.5347 16.2542C46.2119 16.1355 46.0201 15.7985 46.0797 15.4562L46.3304 14.0148C46.3985 13.6247 46.1412 13.2533 45.7562 13.1843L44.3327 12.9302C43.9949 12.8699 43.748 12.572 43.748 12.2238V10.7598C43.748 10.3638 43.4318 10.0427 43.0402 10.0427H41.5952C41.2514 10.0427 40.9581 9.79267 40.8979 9.45039L40.6471 8.00896C40.579 7.61892 40.2123 7.35823 39.8273 7.42722L38.4045 7.68127C38.066 7.74164 37.734 7.54794 37.6168 7.22092L37.1225 5.84517C36.9889 5.47304 36.5823 5.28133 36.215 5.41665L34.857 5.91747C34.5342 6.03621 34.1741 5.90354 34.0019 5.60172L33.279 4.33409C33.0833 3.99115 32.6505 3.87374 32.3126 4.07141L31.0613 4.80307C30.7641 4.97686 30.3863 4.90987 30.1656 4.64321L29.2365 3.52217C28.9851 3.21903 28.5385 3.17923 28.2393 3.43395L27.1328 4.37522C26.8695 4.59943 26.4859 4.59943 26.2226 4.37522L25.1161 3.43395C24.8162 3.17923 24.3703 3.21903 24.1189 3.52217L23.1898 4.64321C22.9685 4.90987 22.5913 4.97753 22.2934 4.80307L21.0421 4.07141C20.7036 3.87308 20.2708 3.99115 20.0757 4.33409L19.3529 5.60172C19.1813 5.90354 18.8205 6.03621 18.4977 5.91747L17.1404 5.41665C16.7731 5.28133 16.3671 5.47304 16.2329 5.84517L15.7386 7.22092C15.6207 7.54794 15.2887 7.7423 14.9509 7.68127L13.5274 7.42722C13.1424 7.35889 12.7758 7.61892 12.7077 8.00896L12.4569 9.45039C12.3973 9.79267 12.1033 10.0427 11.7602 10.0427H10.3152C9.92426 10.0427 9.60735 10.3638 9.60735 10.7598V12.2238C9.60735 12.572 9.36116 12.8692 9.02265 12.9302L7.59985 13.1843C7.21485 13.2533 6.95753 13.6247 7.02562 14.0148L7.27705 15.4562C7.33663 15.7991 7.14479 16.1355 6.82199 16.2542L5.46401 16.755C5.09669 16.8903 4.90746 17.3023 5.04103 17.6737L5.2833 18.349H5.28264ZM9.96486 16.8625C11.6961 14.0334 14.1193 11.6686 16.9728 10.0228C19.9153 8.32603 23.2716 7.42921 26.6777 7.42921C30.0838 7.42921 33.4394 8.32603 36.382 10.0228C39.2354 11.6679 41.6593 14.0334 43.3899 16.8625C43.4698 16.9925 43.4298 17.1636 43.3015 17.2446C43.2563 17.2731 43.2066 17.2863 43.1574 17.2863C43.0658 17.2863 42.9761 17.2399 42.9244 17.155C39.4109 11.4132 33.3373 7.98508 26.6777 7.98508C20.0181 7.98508 13.9439 11.4132 10.4304 17.155C10.3505 17.285 10.1816 17.3255 10.0532 17.2446C9.92491 17.1636 9.88497 16.9925 9.96486 16.8625Z" fill="white"/>
<path id="Vector_11" d="M48.0734 36.3247H41.2652C38.269 41.3057 32.8567 44.631 26.6783 44.631C20.5 44.631 15.0877 41.3057 12.0909 36.3247H5.28262L5.04036 37C4.90679 37.3714 5.09602 37.7834 5.46334 37.9187L6.82132 38.4195C7.14412 38.5383 7.33596 38.8752 7.27638 39.2175L7.02495 40.6589C6.95751 41.049 7.21418 41.4204 7.59918 41.4894L9.02198 41.7435C9.36049 41.8038 9.60668 42.1017 9.60668 42.4499V43.9139C9.60668 44.3099 9.92359 44.631 10.3145 44.631H11.7595C12.1033 44.631 12.3973 44.881 12.4569 45.2233L12.7076 46.6648C12.7757 47.0548 13.1424 47.3155 13.5274 47.2465L14.9509 46.9924C15.2887 46.9321 15.6213 47.1264 15.7385 47.4528L16.2329 48.8285C16.3665 49.2007 16.7731 49.3924 17.1404 49.2571L18.4977 48.7562C18.8205 48.6375 19.1813 48.7702 19.3528 49.072L20.0757 50.3396C20.2708 50.6826 20.7043 50.8 21.0421 50.6023L22.2934 49.8706C22.5913 49.6969 22.9684 49.7638 23.1898 50.0305L24.1189 51.1515C24.3703 51.4547 24.8162 51.4945 25.1161 51.2398L26.2226 50.2985C26.4858 50.0743 26.8695 50.0743 27.1327 50.2985L28.2393 51.2398C28.5385 51.4945 28.9851 51.4547 29.2365 51.1515L30.1656 50.0305C30.3863 49.7638 30.7641 49.6962 31.0613 49.8706L32.3126 50.6023C32.6511 50.8006 33.0839 50.6832 33.279 50.3396L34.0019 49.072C34.1734 48.7702 34.5342 48.6375 34.857 48.7562L36.215 49.2571C36.5823 49.3924 36.9882 49.2007 37.1225 48.8285L37.6168 47.4528C37.734 47.1264 38.0666 46.9314 38.4045 46.9924L39.8273 47.2465C40.2123 47.3155 40.579 47.0548 40.6471 46.6648L40.8978 45.2233C40.9574 44.881 41.2514 44.631 41.5952 44.631H43.0402C43.4318 44.631 43.748 44.3099 43.748 43.9139V42.4499C43.748 42.1017 43.9949 41.8045 44.3327 41.7435L45.7562 41.4894C46.1412 41.4204 46.3985 41.049 46.3304 40.6589L46.0796 39.2175C46.0201 38.8746 46.2119 38.5383 46.5347 38.4195L47.892 37.9187C48.2593 37.7834 48.4486 37.3714 48.3157 37L48.0734 36.3247ZM43.3912 37.8106C41.66 40.6397 39.2367 43.0051 36.3832 44.6502C33.4401 46.347 30.0844 47.2438 26.6783 47.2438C23.2723 47.2438 19.9166 46.347 16.9734 44.6502C14.1193 43.0051 11.696 40.6397 9.96484 37.8106C9.88496 37.6806 9.9249 37.5094 10.0532 37.4285C10.1816 37.3476 10.3505 37.388 10.4304 37.518C13.9438 43.2605 20.0181 46.6886 26.6783 46.6886C33.3386 46.6886 39.4122 43.2605 42.9256 37.518C43.0055 37.388 43.1744 37.3476 43.3028 37.4285C43.4311 37.5094 43.4711 37.6806 43.3912 37.8106Z" fill="white"/>
<path id="Vector_12" d="M108.834 28.6241C109.513 28.6241 110.063 28.0669 110.063 27.3797C110.063 26.6924 109.513 26.1353 108.834 26.1353C108.156 26.1353 107.606 26.6924 107.606 27.3797C107.606 28.0669 108.156 28.6241 108.834 28.6241Z" fill="white"/>
<path id="Vector_13" d="M108.234 24.2533C108.566 24.2533 108.834 23.9813 108.834 23.6457C108.834 23.3101 108.566 23.0381 108.234 23.0381C107.903 23.0381 107.635 23.3101 107.635 23.6457C107.635 23.9813 107.903 24.2533 108.234 24.2533Z" fill="white"/>
<path id="Vector_14" d="M108.234 31.7211C108.566 31.7211 108.834 31.449 108.834 31.1135C108.834 30.7779 108.566 30.5059 108.234 30.5059C107.903 30.5059 107.635 30.7779 107.635 31.1135C107.635 31.449 107.903 31.7211 108.234 31.7211Z" fill="white"/>
<path id="Vector_15" d="M72.0914 24.2533C72.4227 24.2533 72.6912 23.9813 72.6912 23.6457C72.6912 23.3101 72.4227 23.0381 72.0914 23.0381C71.7602 23.0381 71.4917 23.3101 71.4917 23.6457C71.4917 23.9813 71.7602 24.2533 72.0914 24.2533Z" fill="white"/>
<path id="Vector_16" d="M72.0914 31.7211C72.4227 31.7211 72.6912 31.449 72.6912 31.1135C72.6912 30.7779 72.4227 30.5059 72.0914 30.5059C71.7602 30.5059 71.4917 30.7779 71.4917 31.1135C71.4917 31.449 71.7602 31.7211 72.0914 31.7211Z" fill="white"/>
<path id="Vector_17" d="M71.4917 28.6241C72.1701 28.6241 72.72 28.0669 72.72 27.3797C72.72 26.6924 72.1701 26.1353 71.4917 26.1353C70.8133 26.1353 70.2633 26.6924 70.2633 27.3797C70.2633 28.0669 70.8133 28.6241 71.4917 28.6241Z" fill="white"/>
<path id="Vector_18" d="M95.2622 24.221H92.761C94.4267 22.2323 93.9435 19.9949 93.7491 19.4543C93.4387 18.3936 91.921 17.2188 91.4797 19.4543C91.1032 22.0273 88.818 24.5175 88.818 24.5175H88.8259C88.2163 24.8093 87.7174 25.3022 87.4123 25.9098V33.8811C87.9112 34.8814 88.9339 35.5726 90.1112 35.5726H93.8152C95.6636 35.5726 97.2363 34.2061 97.5179 32.3554L98.2892 27.2876C98.2892 25.6014 96.9273 24.2216 95.2629 24.2216L95.2622 24.221Z" fill="white"/>
<path id="Vector_19" d="M85.1533 35.6972H83.4444C82.7405 35.6972 82.1683 35.1175 82.1683 34.4044V25.328C82.1683 24.6149 82.7412 24.0352 83.4444 24.0352H85.1533C85.8572 24.0352 86.4295 24.6156 86.4295 25.328V34.4044C86.4295 35.1175 85.8572 35.6972 85.1533 35.6972Z" fill="white"/>
<path id="Vector_20" d="M74.7269 18.7358C74.6221 18.9846 74.6129 19.2393 74.6994 19.5006C74.7851 19.762 74.9429 19.9623 75.1721 20.101C75.3449 20.2058 75.5302 20.2575 75.7286 20.2562C75.927 20.2549 76.1104 20.2031 76.2793 20.1003C76.4482 19.9981 76.5805 19.8582 76.6754 19.6797C76.7802 19.4834 76.8228 19.2784 76.8025 19.0642C76.7992 19.0356 76.8064 19.0091 76.8234 18.9852C76.8404 18.9614 76.864 18.9461 76.8935 18.9401L77.2392 18.8751C77.2719 18.8698 77.302 18.8764 77.3289 18.8963C77.3557 18.9162 77.3708 18.9428 77.3741 18.9766C77.3911 19.1338 77.3865 19.289 77.359 19.4423C77.3263 19.6307 77.268 19.8031 77.1848 19.959C77.0997 20.1189 76.9884 20.2628 76.8522 20.3915C76.5949 20.6316 76.2898 20.7762 75.9382 20.8253C75.5859 20.8744 75.252 20.8121 74.9351 20.6383C74.6208 20.4658 74.387 20.2184 74.2332 19.896C74.0793 19.5736 74.0315 19.238 74.0878 18.889C74.1186 18.698 74.1775 18.5209 74.2639 18.3584C74.3438 18.2091 74.4551 18.0665 74.5985 17.9319C74.7557 17.7833 74.9298 17.6698 75.1204 17.5929C75.1518 17.5803 75.1826 17.581 75.212 17.5955C75.2415 17.6101 75.2618 17.634 75.2723 17.6665L75.3738 18.0068C75.3823 18.0347 75.3803 18.0625 75.3679 18.0897C75.3561 18.1169 75.3358 18.1362 75.3083 18.1481C75.0359 18.2609 74.8414 18.4566 74.7255 18.7358H74.7269Z" fill="white"/>
<path id="Vector_21" d="M75.6933 16.3532C75.6842 16.3459 75.6822 16.332 75.6874 16.3121C75.6927 16.2922 75.7025 16.273 75.7189 16.2531L76.7619 14.9841C76.7776 14.9649 76.7946 14.9509 76.8123 14.943C76.83 14.935 76.8437 14.935 76.8529 14.943L77.1692 15.2096C77.1881 15.2256 77.1993 15.2468 77.2019 15.272C77.2045 15.2972 77.198 15.3198 77.1823 15.339L76.5092 16.1582C76.4934 16.1774 76.4862 16.1993 76.4889 16.2245C76.4908 16.2497 76.502 16.2703 76.5209 16.2862L77.1043 16.7784C77.1233 16.7943 77.1456 16.8016 77.1705 16.7997C77.196 16.7977 77.2163 16.787 77.232 16.7678L77.5725 16.3539C77.5882 16.3347 77.6092 16.324 77.634 16.3221C77.6596 16.3201 77.6812 16.3274 77.7002 16.3433L77.9791 16.5788C77.9981 16.5947 78.0092 16.6159 78.0118 16.6411C78.0145 16.6663 78.0079 16.6889 77.9922 16.7081L77.6517 17.122C77.636 17.1413 77.6288 17.1632 77.6314 17.1884C77.6334 17.2136 77.6445 17.2341 77.6635 17.2501L77.9477 17.4895C77.9667 17.5054 77.9889 17.5127 78.0138 17.5107C78.0393 17.5088 78.0596 17.4981 78.0754 17.4789L78.7484 16.6597C78.7642 16.6405 78.7851 16.6298 78.81 16.6278C78.8349 16.6259 78.8571 16.6332 78.8761 16.6491L79.0915 16.8308L79.1943 16.9171C79.2035 16.9244 79.2055 16.9376 79.2002 16.9569C79.195 16.9754 79.1845 16.9947 79.1688 17.0139L78.1258 18.2829C78.1101 18.3021 78.093 18.316 78.0754 18.3253C78.0577 18.3346 78.0439 18.3353 78.0354 18.3273L75.7981 16.4395L75.694 16.3512L75.6933 16.3532Z" fill="white"/>
<path id="Vector_22" d="M79.8825 13.3117C79.9957 13.449 80.0658 13.6042 80.0939 13.7767C80.1221 13.9491 80.107 14.117 80.0488 14.2795C80.037 14.3087 80.037 14.3385 80.0501 14.3677C80.0632 14.3975 80.0841 14.4174 80.1142 14.4287L81.2961 14.8679C81.336 14.8818 81.3603 14.911 81.3694 14.9547C81.3779 14.9985 81.3655 15.0343 81.3321 15.0629L81.0178 15.3282C80.9851 15.3554 80.9484 15.362 80.9072 15.3461L79.6415 14.8745C79.6003 14.8592 79.5629 14.8659 79.5295 14.8944L79.4235 14.9839C79.3986 15.0045 79.3848 15.031 79.3822 15.0622C79.3796 15.0934 79.3881 15.1212 79.4091 15.1465L80.0828 15.965C80.1031 15.9902 80.1123 16.0181 80.1103 16.0486C80.1083 16.0791 80.0946 16.105 80.0697 16.1262L79.7973 16.3564C79.7725 16.3769 79.745 16.3862 79.7148 16.3829C79.6847 16.3796 79.6592 16.3657 79.6389 16.3405L77.7767 14.0785C77.7564 14.0533 77.7473 14.0254 77.7499 13.9942C77.7525 13.9631 77.7663 13.9372 77.7911 13.916L78.6869 13.1598C78.7811 13.0802 78.8866 13.0251 79.0044 12.9939C79.1223 12.9628 79.2395 12.9608 79.356 12.9866C79.5662 13.0344 79.741 13.1432 79.8811 13.3137L79.8825 13.3117ZM78.5467 13.918C78.5219 13.9385 78.5081 13.9651 78.5055 13.9962C78.5029 14.0274 78.5114 14.0553 78.531 14.0785L78.8938 14.5196C78.9141 14.5448 78.9402 14.5587 78.971 14.5614C79.0018 14.564 79.0293 14.5554 79.0542 14.5342L79.3888 14.2516C79.4785 14.176 79.5256 14.0791 79.5302 13.9617C79.5348 13.8443 79.4955 13.7428 79.4123 13.6573C79.339 13.5843 79.25 13.5478 79.1458 13.5465C79.0411 13.5452 78.9488 13.579 78.8682 13.6467L78.5474 13.918H78.5467Z" fill="white"/>
<path id="Vector_23" d="M80.4744 12.2994L80.3231 12.0347C80.3107 12.0128 80.3081 11.9896 80.3146 11.9644C80.3212 11.9392 80.3356 11.9199 80.3565 11.9073L81.78 11.0722C81.8016 11.0596 81.8245 11.0569 81.8494 11.0636C81.8743 11.0702 81.8933 11.0848 81.9057 11.106L82.057 11.3707C82.0694 11.3926 82.072 11.4158 82.0655 11.441C82.0589 11.4662 82.0445 11.4855 82.0236 11.4981L81.6412 11.7223C81.6196 11.7349 81.6052 11.7534 81.5986 11.778C81.5914 11.8025 81.594 11.8258 81.6065 11.8476L82.8433 14.0108C82.8558 14.0327 82.859 14.0559 82.8532 14.0804C82.8473 14.1056 82.8335 14.1242 82.8119 14.1368L82.4695 14.3378C82.4479 14.3504 82.4249 14.3531 82.4001 14.3464C82.3752 14.3398 82.3562 14.3252 82.3437 14.304L81.1069 12.1408C81.0945 12.1189 81.0761 12.105 81.0512 12.099C81.027 12.0931 81.0034 12.0964 80.9825 12.109L80.6001 12.3332C80.5785 12.3458 80.5556 12.3485 80.5307 12.3418C80.5058 12.3352 80.4868 12.3206 80.4744 12.2994Z" fill="white"/>
<path id="Vector_24" d="M84.3349 13.2808L83.2506 10.5001C83.2414 10.4769 83.2421 10.453 83.2526 10.4291C83.263 10.4052 83.2794 10.3886 83.3023 10.3793L83.6703 10.2321C83.6932 10.2228 83.7161 10.2235 83.739 10.2341C83.762 10.2447 83.7783 10.2619 83.7875 10.2852L84.8718 13.0658C84.8809 13.0891 84.8803 13.1129 84.8711 13.1362C84.8613 13.16 84.8449 13.1766 84.822 13.1852L84.454 13.3325C84.4311 13.3418 84.4076 13.3411 84.384 13.3305C84.3604 13.3199 84.344 13.3033 84.3349 13.2801V13.2808Z" fill="white"/>
<path id="Vector_25" d="M85.1304 9.76232C85.1271 9.74905 85.1337 9.73645 85.1494 9.72385C85.1651 9.71124 85.1847 9.70196 85.209 9.69599L86.7948 9.31656C86.819 9.31059 86.8406 9.30993 86.8596 9.31457C86.8786 9.31921 86.8897 9.32784 86.893 9.3411L86.9945 9.77691C87.0004 9.80146 86.9965 9.82401 86.9834 9.84524C86.9703 9.86646 86.9519 9.88039 86.9277 9.8857L85.9037 10.1305C85.8794 10.1364 85.8611 10.1504 85.848 10.1723C85.8349 10.1942 85.8316 10.2174 85.8375 10.2419L86.0032 10.9537C86.0091 10.9782 86.0222 10.9974 86.0438 11.0114C86.0647 11.0253 86.0877 11.0293 86.1119 11.0233L86.6292 10.8993C86.6534 10.8933 86.6763 10.8973 86.6972 10.9112C86.7182 10.9251 86.7319 10.9444 86.7378 10.9689L86.8289 11.3596C86.8347 11.3842 86.8308 11.4067 86.8177 11.428C86.8046 11.4492 86.7863 11.4631 86.7621 11.4684L86.2448 11.5925C86.2206 11.5984 86.2022 11.6124 86.1891 11.6342C86.1761 11.6561 86.1728 11.6794 86.1787 11.7039L86.383 12.5815C86.3889 12.606 86.3849 12.6292 86.3712 12.6518C86.3574 12.6737 86.3384 12.6883 86.3149 12.6936L85.9292 12.7858C85.905 12.7918 85.8821 12.7878 85.8605 12.7739C85.8382 12.7599 85.8244 12.7414 85.8192 12.7168L85.1618 9.89764L85.1304 9.76166V9.76232Z" fill="white"/>
<path id="Vector_26" d="M88.5908 12.177L88.3361 9.19863C88.3342 9.17342 88.3414 9.15087 88.3577 9.13097C88.3741 9.11107 88.3951 9.09979 88.4199 9.0978L88.8141 9.06331C88.839 9.06132 88.8606 9.06861 88.8796 9.0852C88.8986 9.10178 88.9091 9.12301 88.911 9.14821L89.1657 12.1266C89.1677 12.1518 89.1611 12.1743 89.1448 12.1942C89.129 12.2141 89.1088 12.2254 89.0839 12.2274L88.6897 12.2619C88.6648 12.2639 88.6426 12.2566 88.6229 12.24C88.6033 12.2234 88.5921 12.2022 88.5902 12.177H88.5908Z" fill="white"/>
<path id="Vector_27" d="M91.919 9.59583C91.6525 9.5965 91.4175 9.6887 91.2145 9.87178C91.0115 10.0549 90.8917 10.2804 90.8563 10.549C90.8295 10.7514 90.8563 10.9444 90.9349 11.1281C91.0141 11.3119 91.1339 11.4625 91.2931 11.5792C91.4522 11.6959 91.6316 11.7636 91.8306 11.7822C92.05 11.8021 92.2529 11.761 92.4389 11.6581C92.4638 11.6442 92.49 11.6402 92.5188 11.6469C92.5476 11.6535 92.5705 11.6688 92.5869 11.694L92.782 11.9898C92.8003 12.0183 92.8056 12.0488 92.7977 12.0813C92.7905 12.1138 92.7722 12.1384 92.7427 12.155C92.6072 12.2332 92.4644 12.2896 92.3145 12.3248C92.1305 12.3686 91.9511 12.3825 91.7769 12.3666C91.5982 12.35 91.424 12.3036 91.2538 12.2273C90.9342 12.082 90.6828 11.8558 90.4995 11.5474C90.3161 11.2389 90.2408 10.9033 90.2736 10.5398C90.3057 10.1796 90.4379 9.86382 90.6704 9.59384C90.9022 9.32387 91.1876 9.14609 91.5261 9.06185C91.7121 9.01542 91.8954 9.00016 92.0775 9.01674C92.2444 9.032 92.4173 9.07976 92.596 9.16002C92.7931 9.24758 92.964 9.36499 93.1094 9.51225C93.1336 9.5368 93.1447 9.56532 93.1434 9.59849C93.1421 9.63165 93.1284 9.65951 93.1028 9.68273L92.8344 9.91158C92.8121 9.93015 92.7866 9.93944 92.7571 9.93878C92.7276 9.93878 92.7021 9.9275 92.6812 9.90627C92.4716 9.69732 92.2169 9.59384 91.9183 9.59583H91.919Z" fill="white"/>
<path id="Vector_28" d="M95.5549 9.95415C95.5713 9.93624 95.5909 9.93093 95.6138 9.93823C95.6368 9.94552 95.6498 9.96144 95.6531 9.98532L96.0466 13.2496C96.0493 13.2708 96.042 13.2874 96.0257 13.3013C96.0093 13.3153 95.9916 13.3179 95.972 13.3119L95.5176 13.166C95.4757 13.1527 95.4515 13.1222 95.4449 13.0751L95.4023 12.7196C95.3991 12.695 95.386 12.6791 95.3624 12.6718L94.2362 12.311C94.2139 12.3037 94.195 12.309 94.1786 12.3276L93.937 12.5942C93.9069 12.628 93.8695 12.638 93.827 12.6241L93.368 12.4768C93.3484 12.4708 93.3359 12.4576 93.3313 12.437C93.3261 12.4164 93.3307 12.3985 93.3444 12.3833L95.5556 9.95415H95.5549ZM94.6847 11.7697C94.6703 11.7856 94.6664 11.8035 94.6723 11.8241C94.6782 11.8446 94.6906 11.8579 94.7103 11.8639L95.238 12.033C95.2576 12.039 95.2753 12.0364 95.2917 12.0237C95.3081 12.0111 95.3146 11.9946 95.312 11.9733L95.2321 11.3107C95.2288 11.2861 95.2157 11.2702 95.1935 11.2622C95.1706 11.2543 95.1509 11.2589 95.1352 11.2768L94.6854 11.7697H94.6847Z" fill="white"/>
<path id="Vector_29" d="M97.6181 11.0529L97.7589 10.7823C97.7706 10.7604 97.7883 10.7452 97.8132 10.7372C97.8381 10.7292 97.861 10.7312 97.8832 10.7432L99.3388 11.5199C99.3604 11.5319 99.3755 11.5498 99.3833 11.575C99.3912 11.6002 99.3892 11.6234 99.3774 11.646L99.2366 11.9166C99.2249 11.9392 99.2072 11.9538 99.1823 11.9617C99.1574 11.9697 99.1345 11.9677 99.1122 11.9557L98.7214 11.7468C98.6991 11.7349 98.6762 11.7329 98.6519 11.7395C98.6277 11.7468 98.61 11.7614 98.5983 11.7833L97.4478 13.9948C97.4361 14.0174 97.4184 14.032 97.3948 14.0406C97.3706 14.0486 97.3477 14.0466 97.3261 14.0353L96.9757 13.8482C96.9535 13.8363 96.9391 13.8184 96.9312 13.7932C96.9234 13.768 96.9253 13.7448 96.9371 13.7222L98.0875 11.5106C98.0993 11.4888 98.1006 11.4649 98.0928 11.441C98.0849 11.4165 98.0699 11.3985 98.0476 11.3873L97.6567 11.1783C97.6344 11.1664 97.62 11.1485 97.6122 11.1233C97.6043 11.0981 97.6063 11.0748 97.6181 11.0523V11.0529Z" fill="white"/>
<path id="Vector_30" d="M98.8536 14.8857L100.598 12.4738C100.612 12.4532 100.633 12.4413 100.658 12.4373C100.684 12.4333 100.707 12.4386 100.726 12.4539L101.046 12.6907C101.065 12.7053 101.077 12.7259 101.08 12.7511C101.084 12.7763 101.078 12.7995 101.063 12.8194L99.3191 15.2313C99.3047 15.2518 99.2844 15.2638 99.2596 15.2684C99.2347 15.2731 99.2124 15.2678 99.1921 15.2525L98.8726 15.0157C98.8523 15.0011 98.8405 14.9805 98.8366 14.9547C98.8327 14.9288 98.8379 14.9056 98.853 14.8857H98.8536Z" fill="white"/>
<path id="Vector_31" d="M103.853 15.3258C103.993 15.6482 104.028 15.9851 103.958 16.3367C103.889 16.6883 103.723 16.9868 103.461 17.2329C103.196 17.4803 102.887 17.6249 102.534 17.6654C102.181 17.7065 101.85 17.6428 101.542 17.4743C101.378 17.3841 101.236 17.2727 101.115 17.1407C100.993 17.0073 100.895 16.8541 100.819 16.6816C100.677 16.3573 100.64 16.0183 100.709 15.6648C100.777 15.3112 100.943 15.0107 101.207 14.7633C101.47 14.5178 101.776 14.3732 102.127 14.3301C102.478 14.287 102.808 14.3494 103.115 14.5159C103.284 14.6074 103.43 14.7208 103.554 14.8561C103.676 14.9908 103.776 15.1467 103.853 15.3245L103.853 15.3258ZM101.278 16.2372C101.32 16.4276 101.407 16.5954 101.539 16.7407C101.672 16.8859 101.83 16.9874 102.015 17.0445C102.199 17.1015 102.385 17.1088 102.572 17.0677C102.759 17.0259 102.925 16.9384 103.068 16.8037C103.212 16.669 103.311 16.5092 103.367 16.3234C103.423 16.1377 103.43 15.9493 103.388 15.7589C103.346 15.5686 103.259 15.4007 103.127 15.2555C102.994 15.1102 102.836 15.0087 102.652 14.9517C102.468 14.8946 102.282 14.8873 102.095 14.9298C101.909 14.9722 101.743 15.0605 101.6 15.1944C101.456 15.3291 101.356 15.489 101.3 15.674C101.243 15.8598 101.236 16.0475 101.278 16.2379V16.2372Z" fill="white"/>
<path id="Vector_32" d="M106.281 18.9417C106.281 18.9417 106.298 18.9676 106.328 19.022L106.522 19.3722C106.552 19.4266 106.566 19.4538 106.565 19.4545L103.765 21.0438C103.743 21.0558 103.727 21.0578 103.717 21.0498C103.706 21.0412 103.705 21.0253 103.714 21.002L104.505 18.5742C104.513 18.5497 104.511 18.5324 104.501 18.5245C104.49 18.5159 104.474 18.5179 104.452 18.5305L103.013 19.347C102.992 19.3596 102.969 19.3623 102.944 19.3556C102.92 19.349 102.901 19.3351 102.889 19.3132L102.695 18.963C102.683 18.9411 102.681 18.9178 102.687 18.8926C102.694 18.8674 102.708 18.8489 102.73 18.8363L105.45 17.2927C105.471 17.2801 105.488 17.2787 105.498 17.2867C105.509 17.2953 105.509 17.3113 105.501 17.3345L104.698 19.7689C104.69 19.7928 104.69 19.8087 104.701 19.8167C104.711 19.8253 104.727 19.8233 104.749 19.8107L106.197 18.9882L106.279 18.9417H106.281Z" fill="white"/>
<path id="Vector_33" d="M76.8607 36.6228C76.6957 36.4105 76.4797 36.2798 76.2125 36.2301C75.9447 36.181 75.6959 36.2241 75.4654 36.3608C75.2913 36.4636 75.1577 36.6035 75.0634 36.7807C74.9691 36.9571 74.9259 37.1455 74.9331 37.3445C74.9403 37.5435 74.9979 37.7286 75.1066 37.8984C75.2258 38.0861 75.3829 38.2221 75.578 38.3076C75.6042 38.3189 75.6239 38.3375 75.6363 38.3647C75.6494 38.3912 75.6507 38.4191 75.6416 38.4483L75.5316 38.7866C75.5204 38.8184 75.5001 38.8416 75.47 38.8556C75.4399 38.8702 75.4098 38.8702 75.3783 38.8575C75.2343 38.7972 75.102 38.7183 74.9829 38.6201C74.8355 38.5 74.7144 38.366 74.6195 38.2168C74.5226 38.0642 74.4512 37.8964 74.4054 37.7133C74.3216 37.369 74.3432 37.0287 74.4695 36.6924C74.5966 36.3561 74.8113 36.0895 75.1138 35.8911C75.4143 35.6948 75.7404 35.6059 76.094 35.6251C76.4469 35.6437 76.7605 35.7624 77.0349 35.9807C77.1855 36.1001 77.3105 36.2374 77.4094 36.3926C77.5004 36.5352 77.5698 36.703 77.6176 36.8947C77.6707 37.1064 77.6851 37.3153 77.6602 37.5209C77.6563 37.5554 77.6405 37.582 77.6137 37.6012C77.5869 37.6204 77.5567 37.6271 77.5233 37.6204L77.1796 37.5468C77.1514 37.5408 77.1285 37.5256 77.1108 37.5024C77.0932 37.4785 77.086 37.4519 77.0892 37.4214C77.1226 37.1249 77.0467 36.8583 76.8607 36.6215V36.6228Z" fill="white"/>
<path id="Vector_34" d="M78.2894 37.8506C78.298 37.8427 78.3117 37.842 78.3307 37.8493C78.3497 37.8566 78.3674 37.8692 78.3844 37.8878L79.5034 39.0878C79.5204 39.1063 79.5315 39.1249 79.5374 39.1435C79.5433 39.1627 79.5413 39.176 79.5335 39.1839L79.2343 39.4698C79.2159 39.4871 79.1943 39.4957 79.1694 39.4957C79.1439 39.4957 79.123 39.4864 79.1059 39.4679L78.3831 38.6931C78.3661 38.6745 78.3451 38.6652 78.3202 38.6646C78.2953 38.6639 78.2744 38.6719 78.2561 38.6891L77.7041 39.2171C77.6858 39.2344 77.6766 39.2556 77.6753 39.2815C77.674 39.3073 77.6818 39.3292 77.6989 39.3471L78.0642 39.7385C78.0812 39.7571 78.0891 39.779 78.0878 39.8042C78.0865 39.83 78.0766 39.8513 78.059 39.8685L77.7951 40.1212C77.7768 40.1385 77.7552 40.1471 77.7303 40.1471C77.7047 40.1471 77.6838 40.1378 77.6668 40.1192L77.3014 39.7279C77.2844 39.7093 77.2634 39.7 77.2385 39.6994C77.2137 39.6987 77.1927 39.7067 77.1744 39.7239L76.9059 39.9813C76.8876 39.9985 76.8784 40.0197 76.8771 40.0456C76.8758 40.0715 76.8837 40.0934 76.9007 40.1113L77.6236 40.8861C77.6406 40.9046 77.6484 40.9265 77.6471 40.9517C77.6458 40.9776 77.636 40.9988 77.6183 41.0161L77.4147 41.2111L77.3178 41.304C77.3093 41.3119 77.2962 41.3126 77.2785 41.3053C77.2608 41.298 77.2431 41.2854 77.2261 41.2668L76.1071 40.0668C76.0901 40.0483 76.0783 40.0297 76.0718 40.0111C76.0652 39.9919 76.0659 39.9786 76.0744 39.9707L78.1912 37.9448L78.2901 37.8506H78.2894Z" fill="white"/>
<path id="Vector_35" d="M81.1344 41.5614C81.0277 41.704 80.8947 41.8088 80.7356 41.8751C80.5759 41.9421 80.4115 41.9647 80.2419 41.9441C80.2112 41.9388 80.183 41.9461 80.1575 41.9654C80.1319 41.9846 80.1175 42.0105 80.1136 42.043L79.9584 43.3079C79.9539 43.3511 79.9316 43.3816 79.891 43.3995C79.8511 43.4181 79.8131 43.4134 79.7784 43.3869L79.4523 43.1368C79.4182 43.1109 79.4045 43.0758 79.4097 43.032L79.5774 41.6761C79.5826 41.6324 79.5682 41.5965 79.5335 41.57L79.4235 41.4858C79.398 41.4659 79.3698 41.4586 79.339 41.4626C79.3082 41.4665 79.2834 41.4818 79.2637 41.5077L78.6286 42.3574C78.609 42.3833 78.5847 42.3985 78.5546 42.4032C78.5245 42.4078 78.497 42.4005 78.4708 42.3806L78.188 42.1637C78.1624 42.1438 78.148 42.1193 78.1441 42.0881C78.1402 42.0576 78.148 42.029 78.1676 42.0032L79.9224 39.6543C79.9421 39.6284 79.9669 39.6132 79.9977 39.6092C80.0285 39.6046 80.0566 39.6125 80.0822 39.6324L81.0119 40.3455C81.1095 40.4205 81.1868 40.5127 81.2431 40.6214C81.2994 40.7309 81.3282 40.8457 81.3295 40.967C81.3315 41.1853 81.266 41.3823 81.1337 41.5594L81.1344 41.5614ZM80.2498 40.38C80.2243 40.3601 80.1961 40.3528 80.1653 40.3568C80.1346 40.3608 80.1103 40.3753 80.0913 40.4006L79.7496 40.8583C79.7299 40.8841 79.7227 40.9126 79.7266 40.9438C79.7306 40.975 79.7456 41.0002 79.7712 41.0201L80.1182 41.2861C80.2112 41.3577 80.3146 41.3823 80.4292 41.3604C80.5431 41.3385 80.6322 41.2768 80.695 41.1753C80.7487 41.0864 80.7638 40.9903 80.7415 40.8874C80.7193 40.784 80.6662 40.7004 80.5824 40.636L80.2491 40.3807L80.2498 40.38Z" fill="white"/>
<path id="Vector_36" d="M81.9286 41.485L82.072 41.2157C82.0838 41.1938 82.1021 41.1785 82.1264 41.1713C82.1512 41.164 82.1741 41.1659 82.1964 41.1779L83.6447 41.9679C83.6664 41.9799 83.6814 41.9984 83.6886 42.023C83.6958 42.0482 83.6939 42.0714 83.6821 42.094L83.5387 42.3633C83.5269 42.3852 83.5086 42.4004 83.4843 42.4077C83.4594 42.415 83.4365 42.413 83.4143 42.4011L83.0253 42.1888C83.0037 42.1769 82.9802 42.1742 82.9559 42.1815C82.9317 42.1881 82.9134 42.2027 82.9016 42.2253L81.7315 44.4262C81.7197 44.4481 81.7021 44.4634 81.6778 44.4713C81.6536 44.4793 81.6307 44.4773 81.6091 44.4654L81.2607 44.275C81.2391 44.2631 81.2241 44.2445 81.2169 44.2193C81.2097 44.1941 81.2116 44.1708 81.2234 44.1483L82.3935 41.9474C82.4053 41.9255 82.4072 41.9022 82.3994 41.8777C82.3915 41.8532 82.3771 41.8352 82.3549 41.8233L81.9659 41.611C81.9443 41.5991 81.9293 41.5805 81.9221 41.556C81.9149 41.5308 81.9168 41.5076 81.9286 41.485Z" fill="white"/>
<path id="Vector_37" d="M83.5256 45.2513L84.5614 42.4513C84.5699 42.4281 84.5863 42.4109 84.6099 42.3996C84.6334 42.389 84.657 42.3877 84.6799 42.3963L85.0505 42.5369C85.0734 42.5455 85.0905 42.5621 85.1003 42.5853C85.1101 42.6092 85.1108 42.6324 85.1022 42.6556L84.0664 45.4549C84.0579 45.4788 84.0422 45.496 84.0193 45.5067C83.9963 45.5179 83.9734 45.5186 83.9505 45.51L83.5799 45.3693C83.5563 45.3607 83.54 45.3441 83.5288 45.3203C83.5184 45.2964 83.5171 45.2732 83.5256 45.2493V45.2513Z" fill="white"/>
<path id="Vector_38" d="M85.9803 42.9198C85.9829 42.9065 85.9947 42.8979 86.0143 42.8932C86.034 42.8886 86.0562 42.8893 86.0805 42.8946L87.6696 43.2621C87.6938 43.2674 87.7134 43.2766 87.7285 43.2892C87.7436 43.3019 87.7495 43.3145 87.7468 43.3277L87.6486 43.7642C87.6434 43.7887 87.6296 43.8073 87.6087 43.8212C87.5877 43.8345 87.5655 43.8385 87.5412 43.8325L86.5152 43.595C86.491 43.5897 86.4681 43.5937 86.4471 43.6077C86.4262 43.6216 86.4124 43.6408 86.4072 43.6654L86.2461 44.3784C86.2409 44.403 86.2442 44.4262 86.2573 44.4481C86.2703 44.47 86.2887 44.4839 86.3129 44.4892L86.8308 44.6093C86.8551 44.6146 86.8734 44.6285 86.8865 44.6504C86.8996 44.6723 86.9029 44.6955 86.8976 44.7201L86.8092 45.1114C86.804 45.136 86.7902 45.1545 86.7693 45.1685C86.7483 45.1817 86.7254 45.1857 86.7018 45.1798L86.1839 45.0597C86.1597 45.0537 86.1374 45.0584 86.1158 45.0723C86.0949 45.0862 86.0811 45.1055 86.0759 45.13L85.8775 46.0096C85.8722 46.0341 85.8585 46.0534 85.8362 46.0673C85.8146 46.0812 85.7911 46.0852 85.7675 46.0799L85.3812 45.9903C85.357 45.985 85.338 45.9711 85.3242 45.9486C85.3105 45.9267 85.3065 45.9034 85.3118 45.8789L85.9482 43.0551L85.979 42.9191L85.9803 42.9198Z" fill="white"/>
<path id="Vector_39" d="M88.3944 46.4568L88.6589 43.4791C88.6609 43.4539 88.672 43.4333 88.6917 43.4167C88.7113 43.4002 88.7336 43.3929 88.7585 43.3949L89.1526 43.4307C89.1775 43.4327 89.1978 43.4439 89.2135 43.4638C89.2292 43.4837 89.2358 43.5063 89.2338 43.5315L88.9693 46.5092C88.9673 46.5344 88.9562 46.555 88.9372 46.5722C88.9182 46.5888 88.8966 46.5961 88.8717 46.5941L88.4776 46.5583C88.4527 46.5563 88.4324 46.545 88.416 46.5251C88.3997 46.5052 88.3925 46.4827 88.3944 46.4575V46.4568Z" fill="white"/>
<path id="Vector_40" d="M91.6715 43.9168C91.4083 43.9613 91.1916 44.0906 91.0207 44.3049C90.8498 44.5192 90.7679 44.7613 90.7758 45.0319C90.7817 45.2362 90.8386 45.4219 90.9467 45.5904C91.0547 45.7589 91.1968 45.8876 91.3723 45.9765C91.5484 46.0654 91.7357 46.1032 91.9354 46.0886C92.1547 46.0727 92.3485 45.9984 92.5161 45.8657C92.5384 45.8478 92.5639 45.8399 92.5934 45.8412C92.6229 45.8425 92.6478 45.8544 92.6687 45.877L92.909 46.137C92.9313 46.1622 92.9411 46.1914 92.9391 46.2246C92.9372 46.2577 92.9228 46.2856 92.8966 46.3068C92.7748 46.4063 92.6432 46.4853 92.5011 46.545C92.3263 46.6186 92.1521 46.6617 91.9773 46.675C91.7985 46.6883 91.6185 46.671 91.4384 46.6239C91.0999 46.5337 90.8157 46.3506 90.5852 46.0767C90.3548 45.8027 90.2271 45.4836 90.2009 45.1195C90.1747 44.7586 90.2546 44.4256 90.4405 44.1205C90.6265 43.8154 90.8792 43.5938 91.2001 43.4545C91.3755 43.3776 91.555 43.3331 91.7363 43.3192C91.9033 43.3066 92.082 43.3258 92.2713 43.3756C92.4801 43.43 92.6674 43.5175 92.8344 43.6382C92.8619 43.6581 92.8782 43.6853 92.8815 43.7178C92.8848 43.7503 92.8763 43.7809 92.8553 43.8074L92.6268 44.0774C92.6078 44.0993 92.5842 44.1125 92.5548 44.1172C92.526 44.1218 92.4991 44.1152 92.4742 44.0973C92.2339 43.9255 91.9661 43.8651 91.6715 43.9162V43.9168Z" fill="white"/>
<path id="Vector_41" d="M94.4981 43.0126C94.502 42.9888 94.5158 42.9735 94.5387 42.9669C94.5616 42.9602 94.5813 42.9669 94.597 42.9848L96.6811 45.5061C96.6948 45.522 96.6981 45.5406 96.6916 45.5605C96.685 45.5804 96.6719 45.5937 96.6523 45.599L96.1926 45.7277C96.1507 45.7396 96.1141 45.7277 96.0833 45.6919L95.8567 45.4172C95.841 45.3987 95.8214 45.3927 95.7972 45.3993L94.6585 45.7177C94.6363 45.7244 94.6225 45.7389 94.6186 45.7635L94.559 46.1204C94.5518 46.1655 94.5263 46.194 94.4824 46.2059L94.0182 46.3353C93.9985 46.3406 93.9809 46.3366 93.9658 46.322C93.9507 46.3081 93.9448 46.2902 93.9481 46.2696L94.4981 43.0126ZM94.7437 45.0152C94.7404 45.0358 94.7463 45.0537 94.7626 45.0677C94.7784 45.0816 94.796 45.0856 94.8157 45.0803L95.3493 44.931C95.369 44.9257 95.382 44.9131 95.3892 44.8932C95.3958 44.874 95.3925 44.856 95.3794 44.8395L94.9564 44.328C94.9407 44.3095 94.9211 44.3028 94.8975 44.3088C94.8739 44.3148 94.8602 44.3294 94.8563 44.3539L94.7437 45.0152Z" fill="white"/>
<path id="Vector_42" d="M96.2555 42.7591L96.1291 42.4812C96.1187 42.4586 96.118 42.4348 96.1272 42.4102C96.1363 42.3857 96.1521 42.3684 96.1743 42.3578L97.6691 41.6613C97.6914 41.6507 97.715 41.65 97.7392 41.6593C97.7634 41.6686 97.7805 41.6845 97.7909 41.7071L97.9173 41.985C97.9278 42.0076 97.9284 42.0315 97.9193 42.056C97.9101 42.0805 97.8944 42.0978 97.8721 42.1084L97.4708 42.2955C97.4485 42.3061 97.4321 42.3233 97.423 42.3472C97.4138 42.3711 97.4144 42.3943 97.4249 42.4169L98.4562 44.6881C98.4666 44.7107 98.4673 44.7345 98.4594 44.7584C98.4509 44.783 98.4359 44.8002 98.413 44.8102L98.0535 44.978C98.0312 44.9886 98.0077 44.9893 97.9834 44.98C97.9592 44.9707 97.9422 44.9548 97.9317 44.9322L96.9005 42.661C96.89 42.6384 96.873 42.6225 96.8494 42.6139C96.8252 42.6052 96.8022 42.6066 96.78 42.6172L96.3786 42.8042C96.3563 42.8149 96.3328 42.8155 96.3085 42.8062C96.2843 42.7969 96.2673 42.781 96.2568 42.7585L96.2555 42.7591Z" fill="white"/>
<path id="Vector_43" d="M100.187 43.7308L98.5989 41.2108C98.5858 41.1896 98.5819 41.1663 98.5871 41.1405C98.593 41.1153 98.6061 41.0954 98.6271 41.0821L98.961 40.8665C98.9819 40.8533 99.0049 40.8493 99.0291 40.8552C99.0533 40.8612 99.0723 40.8751 99.0861 40.8964L100.674 43.4164C100.687 43.4376 100.692 43.4608 100.686 43.486C100.681 43.5112 100.669 43.5305 100.648 43.5437L100.314 43.7593C100.293 43.7726 100.27 43.7766 100.244 43.7713C100.219 43.766 100.2 43.752 100.187 43.7308Z" fill="white"/>
<path id="Vector_44" d="M101.373 38.8973C101.691 38.7566 102.024 38.7208 102.371 38.7918C102.718 38.8621 103.013 39.0306 103.256 39.2966C103.5 39.5646 103.643 39.8777 103.682 40.2352C103.722 40.5928 103.66 40.9277 103.494 41.2402C103.405 41.406 103.295 41.5499 103.165 41.6727C103.033 41.796 102.882 41.8962 102.711 41.9725C102.391 42.1151 102.057 42.1522 101.708 42.0833C101.359 42.0143 101.063 41.8458 100.818 41.5778C100.576 41.3118 100.433 41.0014 100.391 40.6452C100.348 40.2896 100.41 39.9559 100.575 39.6448C100.665 39.4737 100.777 39.3258 100.912 39.2004C101.044 39.0764 101.198 38.9749 101.374 38.8973H101.373ZM102.271 41.5062C102.459 41.4644 102.625 41.3761 102.768 41.2415C102.912 41.1075 103.012 40.947 103.068 40.7606C103.125 40.5742 103.132 40.3858 103.091 40.1961C103.05 40.0064 102.964 39.8385 102.831 39.6933C102.698 39.548 102.54 39.4472 102.357 39.3901C102.173 39.3337 101.987 39.3264 101.799 39.3682C101.611 39.4107 101.446 39.4989 101.302 39.6329C101.159 39.7676 101.059 39.9274 101.003 40.1138C100.946 40.3002 100.939 40.4879 100.98 40.6777C101.022 40.8674 101.109 41.0345 101.242 41.1798C101.374 41.3251 101.532 41.4266 101.715 41.4836C101.898 41.5407 102.084 41.5479 102.271 41.5062Z" fill="white"/>
<path id="Vector_45" d="M103.528 36.2046C103.528 36.2046 103.544 36.178 103.579 36.127L103.806 35.7986C103.842 35.7475 103.86 35.723 103.861 35.7236L106.488 37.5903C106.508 37.6049 106.517 37.6188 106.514 37.6321C106.512 37.6453 106.497 37.6533 106.473 37.6553L103.971 37.9856C103.945 37.9889 103.931 37.9976 103.928 38.0108C103.925 38.0241 103.934 38.038 103.954 38.0526L105.304 39.0125C105.325 39.027 105.337 39.0469 105.342 39.0715C105.347 39.0967 105.342 39.1193 105.329 39.1398L105.101 39.4682C105.087 39.4887 105.067 39.5013 105.042 39.506C105.016 39.5106 104.993 39.506 104.973 39.4914L102.421 37.6778C102.4 37.6632 102.392 37.6493 102.395 37.636C102.397 37.6228 102.412 37.6148 102.436 37.6128L104.949 37.2898C104.974 37.2878 104.988 37.2798 104.991 37.2666C104.994 37.2533 104.985 37.2394 104.965 37.2248L103.605 36.259L103.528 36.2039V36.2046Z" fill="white"/>
<path id="Vector_46" d="M115.007 27.8421C114.765 27.5502 114.765 27.1237 115.007 26.8318L116.025 25.6027C116.301 25.2703 116.258 24.7742 115.93 24.4956L114.717 23.4641C114.428 23.2186 114.355 22.7994 114.543 22.4691L115.335 21.0794C115.549 20.7033 115.422 20.223 115.05 20.0055L113.679 19.2035C113.353 19.0125 113.209 18.6125 113.338 18.2543L113.879 16.7465C114.026 16.3386 113.818 15.8875 113.416 15.7389L111.927 15.1903C111.574 15.0596 111.364 14.6908 111.428 14.3154L111.703 12.7353C111.778 12.3081 111.496 11.9002 111.074 11.8246L109.514 11.546C109.144 11.4796 108.873 11.1533 108.873 10.7719V9.16725C108.873 8.73343 108.526 8.3812 108.098 8.3812H106.514C106.137 8.3812 105.815 8.10724 105.75 7.7318L105.475 6.15174C105.4 5.72455 104.998 5.43865 104.576 5.51427L103.016 5.79287C102.645 5.85921 102.281 5.64628 102.152 5.28741L101.611 3.77966C101.464 3.37171 101.019 3.16143 100.616 3.31002L99.1279 3.85859C98.7744 3.98927 98.3789 3.84334 98.191 3.513L97.3987 2.12331C97.1846 1.7472 96.7099 1.61852 96.3386 1.83543L94.9669 2.6374C94.6409 2.82844 94.2264 2.75414 93.9848 2.46161L92.9666 1.23246C92.691 0.900126 92.2019 0.856346 91.8738 1.13561L90.6605 2.16709C90.3724 2.41253 89.9514 2.41253 89.6633 2.16709L88.4501 1.13561C88.122 0.856346 87.6323 0.900126 87.3573 1.23246L86.3391 2.46161C86.0968 2.75348 85.683 2.82777 85.357 2.6374L83.9852 1.83543C83.614 1.61852 83.1399 1.7472 82.9252 2.12331L82.1336 3.513C81.945 3.84334 81.5502 3.98927 81.1966 3.85859L79.7083 3.31002C79.3056 3.16143 78.8604 3.37171 78.7137 3.77966L78.1722 5.28741C78.0432 5.64561 77.6792 5.85854 77.3086 5.79287L75.749 5.51427C75.3273 5.43865 74.9246 5.72455 74.85 6.15174L74.575 7.7318C74.5095 8.10724 74.1873 8.3812 73.8109 8.3812H72.227C71.7988 8.3812 71.4511 8.73277 71.4511 9.16725V10.7719C71.4511 11.1533 71.1807 11.4796 70.8101 11.546L69.2504 11.8246C68.8288 11.9002 68.5465 12.3075 68.6212 12.7353L68.8962 14.3154C68.9617 14.6908 68.7515 15.0596 68.3973 15.1903L66.909 15.7389C66.5063 15.8875 66.2987 16.3386 66.4454 16.7465L66.9869 18.2543C67.1159 18.6125 66.9718 19.0131 66.6458 19.2035L65.274 20.0055C64.9028 20.2224 64.7758 20.7033 64.9899 21.0794L65.7815 22.4691C65.9701 22.7994 65.8967 23.2186 65.608 23.4641L64.3947 24.4956C64.0667 24.7748 64.0234 25.2703 64.2991 25.6027L65.3173 26.8318C65.5595 27.1237 65.5595 27.5502 65.3173 27.8421L64.2991 29.0712C64.0234 29.4036 64.0667 29.8997 64.3947 30.1783L65.608 31.2098C65.8961 31.4553 65.9694 31.8745 65.7815 32.2048L64.9899 33.5945C64.7758 33.9706 64.9028 34.4509 65.274 34.6684L66.6458 35.4704C66.9718 35.6615 67.1159 36.0614 66.9869 36.4196L66.4454 37.9274C66.2987 38.3354 66.5063 38.7864 66.909 38.935L68.3973 39.4836C68.7508 39.6143 68.961 39.9831 68.8962 40.3585L68.6212 41.9386C68.5465 42.3658 68.8288 42.7737 69.2504 42.8493L70.8101 43.1279C71.1807 43.1943 71.4511 43.5206 71.4511 43.9021V45.5067C71.4511 45.9405 71.7981 46.2927 72.227 46.2927H73.8109C74.1873 46.2927 74.5095 46.5667 74.575 46.9421L74.85 48.5222C74.9246 48.9494 75.3266 49.2353 75.749 49.1596L77.3086 48.881C77.6792 48.8147 78.0439 49.0276 78.1722 49.3865L78.7137 50.8943C78.8604 51.3022 79.3056 51.5125 79.7083 51.3639L81.1966 50.8153C81.5502 50.6846 81.9456 50.8306 82.1336 51.1609L82.9258 52.5506C83.1399 52.9267 83.6146 53.0554 83.9859 52.8385L85.3576 52.0365C85.6837 51.8455 86.0975 51.9198 86.3398 52.2123L87.3579 53.4415C87.6336 53.7738 88.1227 53.8176 88.4507 53.5383L89.664 52.5068C89.9527 52.2614 90.3731 52.2614 90.6612 52.5068L91.8745 53.5383C92.2025 53.8176 92.6923 53.7738 92.9673 53.4415L93.9854 52.2123C94.2277 51.9204 94.6415 51.8461 94.9676 52.0365L96.3393 52.8385C96.7106 53.0554 97.1846 52.9267 97.3994 52.5506L98.191 51.1609C98.3796 50.8306 98.7744 50.6846 99.1279 50.8153L100.616 51.3639C101.019 51.5125 101.464 51.3022 101.611 50.8943L102.152 49.3865C102.281 49.0283 102.645 48.8154 103.016 48.881L104.576 49.1596C104.997 49.2353 105.4 48.9494 105.475 48.5222L105.75 46.9421C105.815 46.5667 106.137 46.2927 106.514 46.2927H108.098C108.526 46.2927 108.873 45.9411 108.873 45.5067V43.9021C108.873 43.5206 109.144 43.1943 109.514 43.1279L111.074 42.8493C111.496 42.7737 111.778 42.3664 111.703 41.9386L111.428 40.3585C111.363 39.9831 111.573 39.6136 111.927 39.4836L113.416 38.935C113.818 38.7864 114.026 38.3354 113.879 37.9274L113.338 36.4196C113.209 36.0614 113.353 35.6608 113.679 35.4704L115.05 34.6684C115.422 34.4515 115.549 33.9706 115.335 33.5945L114.543 32.2048C114.354 31.8745 114.428 31.4553 114.717 31.2098L115.93 30.1783C116.258 29.8991 116.301 29.4036 116.025 29.0712L115.007 27.8421ZM90.1629 50.4352C77.5712 50.4352 67.3634 40.0939 67.3634 27.3373C67.3634 14.5807 77.5712 4.23868 90.1629 4.23868C102.755 4.23868 112.962 14.5801 112.962 27.3366C112.962 40.0932 102.755 50.4346 90.1629 50.4346V50.4352Z" fill="white"/>
<path id="Vector_47" d="M90.1629 49.0523C84.4377 49.0523 79.0549 46.7937 75.0065 42.6923C70.958 38.5909 68.7286 33.1376 68.7286 27.3374C68.7286 21.5373 70.958 16.084 75.0065 11.9826C79.0549 7.88121 84.4377 5.62256 90.1629 5.62256C95.8882 5.62256 101.271 7.88121 105.319 11.9826C109.368 16.084 111.597 21.5373 111.597 27.3374C111.597 33.1376 109.368 38.5909 105.319 42.6923C101.271 46.7937 95.8882 49.0523 90.1629 49.0523ZM90.1629 6.0199C78.5605 6.0199 69.1214 15.5825 69.1214 27.3368C69.1214 39.0911 78.5605 48.6537 90.1629 48.6537C101.765 48.6537 111.204 39.0911 111.204 27.3368C111.204 15.5825 101.765 6.0199 90.1629 6.0199Z" fill="white"/>
<path id="Vector_48" d="M74.8637 33.3957C74.7845 33.3957 74.7099 33.3466 74.6797 33.267C73.9726 31.3759 73.6144 29.3806 73.6144 27.3375C73.6144 25.916 73.7906 24.5037 74.1369 23.1393C74.1638 23.0331 74.2712 22.9688 74.3759 22.996C74.4807 23.0232 74.5442 23.132 74.5174 23.2381C74.1788 24.5701 74.0066 25.9491 74.0066 27.3368C74.0066 29.3315 74.3563 31.279 75.0471 33.1257C75.0857 33.2286 75.0346 33.3433 74.9331 33.3825C74.9102 33.3911 74.8866 33.3957 74.8637 33.3957Z" fill="white"/>
<path id="Vector_49" d="M105.309 33.7915C105.284 33.7915 105.259 33.7868 105.235 33.7769C105.135 33.7351 105.086 33.619 105.128 33.5175C105.919 31.556 106.319 29.4772 106.319 27.3372C106.319 25.8149 106.113 24.3065 105.706 22.8538C105.676 22.7483 105.736 22.6382 105.841 22.6077C105.945 22.5778 106.054 22.6388 106.084 22.745C106.501 24.2328 106.712 25.7777 106.712 27.3372C106.712 29.5282 106.302 31.6582 105.492 33.6674C105.461 33.7444 105.387 33.7915 105.31 33.7915H105.309Z" fill="white"/>
</g>
<defs>
<clipPath id="clip0_94_1201">
<rect width="175" height="54" fill="white"/>
</clipPath>
</defs>
</svg>
