<svg width="15" height="17" viewBox="0 0 15 17" fill="none" xmlns="http://www.w3.org/2000/svg">
<g id="&#240;&#159;&#166;&#134; icon &#34;User&#34;">
<path id="Vector" d="M7.5 8.5C9.70938 8.5 11.5 6.70937 11.5 4.5C11.5 2.29063 9.70938 0.5 7.5 0.5C5.29063 0.5 3.5 2.29063 3.5 4.5C3.5 6.70937 5.29063 8.5 7.5 8.5ZM10.3 9.5H9.77812C9.08437 9.81875 8.3125 10 7.5 10C6.6875 10 5.91875 9.81875 5.22188 9.5H4.7C2.38125 9.5 0.5 11.3813 0.5 13.7V15C0.5 15.8281 1.17188 16.5 2 16.5H13C13.8281 16.5 14.5 15.8281 14.5 15V13.7C14.5 11.3813 12.6187 9.5 10.3 9.5Z" fill="white"/>
</g>
</svg>
