<svg width="15" height="19" viewBox="0 0 15 19" fill="none" xmlns="http://www.w3.org/2000/svg">
<g id="&#240;&#159;&#166;&#134; icon &#34;Location&#34;">
<path id="Vector" fill-rule="evenodd" clip-rule="evenodd" d="M7.21182 18.4088C7.21202 18.4089 7.21217 18.409 7.50002 18.0002L7.21182 18.4088ZM7.78823 18.4088L7.79003 18.4075L7.79458 18.4043L7.81048 18.3929C7.82413 18.3831 7.84378 18.3689 7.86898 18.3504C7.91938 18.3134 7.99213 18.2591 8.08408 18.1885C8.26788 18.0471 8.52859 17.8399 8.84059 17.5732C9.4639 17.0402 10.2955 16.2666 11.1283 15.3031C12.782 13.3901 14.5001 10.6599 14.5001 7.53854C14.5001 5.67276 13.7633 3.88279 12.4509 2.56258C11.1383 1.24228 9.3575 0.5 7.50002 0.5C5.64255 0.5 3.86173 1.24228 2.54916 2.56258C1.23675 3.88279 0.499939 5.67276 0.499939 7.53854C0.499939 10.6599 2.21801 13.3901 3.87173 15.3031C4.70459 16.2666 5.53615 17.0402 6.15946 17.5732C6.47146 17.8399 6.73216 18.0471 6.91597 18.1885C7.00792 18.2591 7.08067 18.3134 7.13107 18.3504C7.15627 18.3689 7.17592 18.3831 7.18957 18.3929L7.20547 18.4043L7.21002 18.4075L7.21182 18.4088C7.38447 18.5304 7.61558 18.5304 7.78823 18.4088ZM7.50002 18.0002L7.78823 18.4088C7.78803 18.4089 7.78788 18.409 7.50002 18.0002ZM10.0001 7.50008C10.0001 8.8808 8.88074 10.0001 7.50002 10.0001C6.11931 10.0001 4.99999 8.8808 4.99999 7.50008C4.99999 6.11937 6.11931 5.00005 7.50002 5.00005C8.88074 5.00005 10.0001 6.11937 10.0001 7.50008Z" fill="white"/>
</g>
</svg>
