<svg width="19" height="19" viewBox="0 0 19 19" fill="none" xmlns="http://www.w3.org/2000/svg">
<g id="&#240;&#159;&#166;&#134; icon &#34;magnifying glass&#34;">
<path id="Vector" d="M8.30435 0.522298C4.00081 0.522298 0.5 4.0231 0.5 8.32664C0.5 12.6302 4.00081 16.131 8.30435 16.131C9.61993 16.131 10.9132 15.8188 12.0058 15.2168C12.0934 15.3221 12.1904 15.4191 12.2957 15.5066L14.5255 17.7365C14.7314 17.9681 14.9825 18.1553 15.2633 18.2864C15.5442 18.4175 15.8489 18.4899 16.1587 18.499C16.4685 18.5081 16.7769 18.4538 17.065 18.3394C17.353 18.2251 17.6147 18.053 17.8338 17.8338C18.053 17.6147 18.2251 17.353 18.3395 17.065C18.4538 16.7769 18.5081 16.4685 18.499 16.1587C18.4899 15.8489 18.4175 15.5442 18.2864 15.2633C18.1553 14.9825 17.9681 14.7314 17.7365 14.5255L15.5066 12.2957C15.398 12.1871 15.2785 12.0899 15.1499 12.0058C15.7519 10.9132 16.131 9.64223 16.131 8.30434C16.131 4.00081 12.6302 0.5 8.32664 0.5L8.30435 0.522298ZM8.30435 2.75211C11.4038 2.75211 13.8789 5.2272 13.8789 8.32664C13.8789 9.79832 13.3437 11.1585 12.4072 12.1619C12.3849 12.1842 12.3626 12.2065 12.3403 12.2288C12.235 12.3163 12.1379 12.4134 12.0504 12.5187C11.0693 13.4106 9.73143 13.9235 8.28205 13.9235C5.18261 13.9235 2.70751 11.4484 2.70751 8.34894C2.70751 5.2495 5.18261 2.77441 8.28205 2.77441L8.30435 2.75211Z" fill="white"/>
</g>
</svg>
